<svg width="4657" height="5173" viewBox="0 0 4657 5173" fill="none" xmlns="http://www.w3.org/2000/svg">
<circle cx="2328.5" cy="2328.5" r="2328.5" fill="#151313"/>
<circle cx="2328" cy="1496" r="729" fill="#FFFDFD"/>
<path d="M3668 3826C3668 3468.75 3528.77 3126.14 3280.94 2873.53C3033.11 2620.92 2696.98 2479 2346.5 2479C1996.02 2479 1659.89 2620.92 1412.06 2873.53C1164.23 3126.14 1025 3468.75 1025 3826L2346.5 3826H3668Z" fill="white"/>
<ellipse cx="1873.13" cy="2769.71" rx="25.1329" ry="15.0309" fill="#D9D9D9"/>
<path d="M2365.97 2672.26L2018.69 2414.39L2726.19 2420.82L2365.97 2672.26Z" fill="#1C1A1A"/>
<path d="M2370.77 2477.81L2665.91 3643.45H2075.62L2370.77 2477.81Z" fill="#131212"/>
<path d="M2381.39 3832.22L2070.99 3640.05L2680.03 3633.5L2381.39 3832.22Z" fill="#151414"/>
</svg>
