<svg xmlns="http://www.w3.org/2000/svg" enable-background="new 0 0 2000 2000" viewBox="0 0 2000 2000"><path fill="#d1deed" fill-rule="evenodd" d="M956.6,1772.9c398.5,0,723.6-9.6,723.6-21.3c0-11.7-325-21.3-723.6-21.3s-723.6,9.6-723.6,21.3
			C233,1763.3,558.1,1772.9,956.6,1772.9z" clip-rule="evenodd"/><path fill="#e9eef7" fill-rule="evenodd" d="M1013.4,381.5c-191.1,0-169.3,337.5-307.2,440.3C523.6,958,209.5,890.6,209.5,1124.2
			c0,410.2,407.4,558.8,851.4,558.8c444,0,822.9-227.5,690.7-636.6C1619.3,637.3,1457.4,381.5,1013.4,381.5z" clip-rule="evenodd"/><path fill="#fb9674" fill-rule="evenodd" d="M1327.4,1455.1h-59.3c-2.8,0-5.1,2.3-5.1,5.1c0,2.8,2.3,5.1,5.1,5.1h59.3c2.8,0,5.1-2.3,5.1-5.1
			C1332.5,1457.4,1330.2,1455.1,1327.4,1455.1z" clip-rule="evenodd"/><path fill="#fabea7" fill-rule="evenodd" d="M1424.7,1729l-101.3-190v-73.7h-51.4v73.7l-101.3,190c-5.5,10.3,2,22.7,13.6,22.7h226.7
			C1422.7,1751.7,1430.2,1739.3,1424.7,1729z" clip-rule="evenodd"/><path fill="#fb9674" fill-rule="evenodd" d="M1395.5,1715.9l-61.7-115.7h-72.2l-61.7,115.7c-3.9,7.3,1.4,16.2,9.7,16.2h176.2
			C1394.1,1732.1,1399.4,1723.3,1395.5,1715.9z" clip-rule="evenodd"/><path fill="#fdfdfd" fill-rule="evenodd" d="M1226.2,1690.1c1.9-3.9,6.6-5.4,10.5-3.5c3.9,1.9,5.4,6.6,3.5,10.5c-1.9,3.9-6.6,5.4-10.5,3.5
			C1225.8,1698.7,1224.2,1694,1226.2,1690.1z" clip-rule="evenodd"/><path fill="#fdfdfd" fill-rule="evenodd" d="M1236,1670.6c1.9-3.9,6.6-5.4,10.5-3.5c3.9,1.9,5.4,6.6,3.5,10.5c-1.9,3.9-6.6,5.4-10.5,3.5
			C1235.6,1679.2,1234,1674.5,1236,1670.6z" clip-rule="evenodd"/><path fill="#fdfdfd" fill-rule="evenodd" d="M1245.8,1651.1c1.9-3.9,6.6-5.4,10.5-3.5c3.9,1.9,5.4,6.6,3.5,10.5c-1.9,3.9-6.6,5.4-10.5,3.5
			C1245.4,1659.7,1243.9,1655,1245.8,1651.1z" clip-rule="evenodd"/><rect width="51.4" height="12.2" x="1272.1" y="1465.4" fill="#fb9674" fill-rule="evenodd" clip-rule="evenodd"/><path fill="#fb9674" fill-rule="evenodd" d="M501.1,658c7.1,24.5,25.2,45.9,54.3,64.1c29.1,18.2,56,23.8,80.5,16.7c29.5-8.5,58.5-29.6,87-63.3
			c30.2-35.3,61.6-57.6,94-66.9c28.5-8.2,54.5-7.2,78.2,3c23.7,10.2,39.3,28.6,46.9,55.1c1.7,5.9,2.6,12,2.9,18.3
			c0.2,6.3-0.9,12.7-3.2,19.3c-2.4,6.5-4.6,12.5-6.8,17.9c-2.2,5.4-5.9,11.8-11.2,19.2c-5.3,7.4-9.7,13.4-13.1,18.1
			c-3.4,4.7-9,11.3-16.6,19.9c-7.6,8.6-13.3,14.7-17,18.4c-3.7,3.7-9.9,10-18.5,18.9c-8.6,8.9-14.6,14.8-18,17.9
			c-58.4,59.3-78,122.4-58.8,189.1c12.4,43.2,33.9,73.7,64.6,91.5c30.6,17.8,64.6,21.3,101.9,10.6c34.4-9.9,58.8-26.5,73.4-49.8
			c14.6-23.3,17.9-48.7,10-76.2l-5.9-20.6c-7.9-27.5,6.1-58.1,42.1-91.8c104.2-95.9,142.1-193.4,113.6-292.6
			c-24.6-85.4-77.3-147.8-158.3-187.3c-81-39.4-169.6-45.3-265.8-17.6c-87.4,25.1-161.5,74.1-222.4,146.9
			C500.4,576.3,489.2,616.7,501.1,658L501.1,658z M864.7,1345.8c11,38.3,31.8,64.2,62.2,77.8c30.5,13.6,65.3,14.7,104.6,3.4
			c38.3-11,67.4-30.8,87.4-59.4c19.9-28.6,24.4-62,13.4-100.3c-9.9-34.4-30.3-59.3-61.4-74.8c-31-15.5-65.7-17.8-104-6.8
			c-40.3,11.6-69.9,32.3-88.9,62.3C859,1277.9,854.6,1310.5,864.7,1345.8z" clip-rule="evenodd"/><path fill="#fff" fill-rule="evenodd" d="M490.8,665c6.7,23.1,23.9,43.4,51.8,60.8c14,8.7,27.4,14.4,40.1,17.1c12.5,2.6,24.4,2.2,35.8-1
				c28.3-8.1,56.4-28.6,84.2-61.5c0.1-0.1,0.3-0.3,0.4-0.4c15.3-17.8,31-32.4,46.8-43.7c16.2-11.5,32.7-19.7,49.6-24.6
				c14.8-4.3,29.1-6.1,42.7-5.6c13.7,0.5,26.9,3.5,39.4,8.9c25.4,10.9,42.1,30.5,50.2,58.8c0.9,3.1,1.6,6.4,2.1,9.7
				c0.5,3.2,0.8,6.6,0.9,10v0l0,0c0.1,3.5-0.1,7.1-0.7,10.7c-0.6,3.6-1.6,7.2-2.8,10.7c-1,2.7-2.1,5.8-3.5,9.5
				c-1.4,3.7-2.5,6.6-3.3,8.6c-1.2,2.9-2.8,6.1-4.8,9.6c-2,3.4-4.4,7-7.1,10.8l-0.2,0.3l-7,9.7l-5.9,8.1l0,0l0,0
				c-1.7,2.4-4,5.3-7,8.8c-2.9,3.5-6.3,7.4-10,11.6c-3.5,4-6.9,7.7-10.1,11.1c-3,3.2-5.4,5.7-7.2,7.6c-1.8,1.8-4.3,4.3-7.4,7.5
				l-11,11.3l-0.3,0.3c-4.5,4.6-8,8.2-10.7,10.9c-2.8,2.8-5.1,5-7,6.8l0,0c-56.8,57.7-75.9,118.8-57.4,183.4
				c6,21,14.2,38.8,24.6,53.5c10.3,14.5,22.7,26.1,37.3,34.5c14.6,8.5,30,13.5,46.1,15.2c16.2,1.7,33.3-0.1,51.3-5.2
				c16.6-4.8,30.8-11.1,42.5-19.1c11.5-7.8,20.7-17.2,27.6-28.2c6.8-11,11-22.4,12.6-34.2c1.6-11.9,0.5-24.3-3.3-37.3l-5.9-20.6
				c-8.6-29.7,6-62.3,43.8-97.7l0,0c51.5-47.3,86.5-95,105.1-142.9c18.4-47.5,20.7-95.5,6.8-143.8c-12.1-41.9-31-78.2-56.8-108.8
				c-25.8-30.6-58.7-55.5-98.4-74.9c-39.8-19.4-81.5-30.5-125-33.4c-43.6-2.9-89.1,2.5-136.6,16.2c-43.1,12.4-83,30.7-119.6,54.8
				c-36.6,24.2-69.9,54.2-100,90.2l-0.3,0.3c-16.5,19.1-27.4,38.3-32.7,57.5l0,0l0,0C485,626.1,485.2,645.5,490.8,665L490.8,665z
				 M536.5,735.7c-30.4-19-49.4-41.5-56.8-67.4c-6.2-21.7-6.4-43.1-0.5-64.4l0,0c5.8-21,17.5-41.6,35.1-62l0.2-0.2
				c30.8-36.8,65-67.6,102.6-92.4c37.6-24.8,78.5-43.6,122.7-56.3c48.7-14,95.6-19.5,140.6-16.5c45.1,3,88.2,14.5,129.3,34.5
				c41.2,20.1,75.3,46,102.2,77.9c26.9,31.9,46.7,69.5,59.2,113c14.6,50.8,12.2,101.2-7.2,151.2c-19.3,49.6-55.3,98.7-108,147.2
				c-34.2,32.1-47.7,60.8-40.5,86l5.9,20.6c4.2,14.5,5.4,28.5,3.6,42c-1.8,13.5-6.5,26.5-14.2,38.9c-7.7,12.3-18,22.9-30.9,31.7
				c-12.8,8.7-28,15.5-45.8,20.6c-19.4,5.6-37.9,7.4-55.7,5.6c-17.8-1.8-34.7-7.4-50.8-16.7c-16-9.3-29.7-21.9-40.9-37.9
				c-11.2-15.8-19.9-34.8-26.3-57c-19.8-68.9,0.3-133.9,60.3-194.8l0,0l0.2-0.2c1.4-1.3,3.7-3.6,6.8-6.7c3.1-3.1,6.7-6.7,10.6-10.8
				l0.2-0.3c2.9-3,6.7-6.9,11.1-11.3c3.1-3.1,5.5-5.7,7.5-7.6c1.9-1.9,4.2-4.3,6.9-7.2c2.5-2.7,5.8-6.4,9.9-11
				c3.9-4.4,7.2-8.2,9.7-11.2c2.6-3.1,4.8-5.9,6.5-8.2l0,0l5.9-8.1l7-9.7l0.2-0.3c2.6-3.6,4.7-6.9,6.5-9.9c1.7-2.9,3-5.6,4-8.1
				c1.3-3.4,2.5-6.2,3.3-8.4c0.9-2.3,2-5.4,3.4-9.3c1.1-3,1.9-5.9,2.3-8.7c0.5-2.8,0.6-5.6,0.6-8.4l0,0c-0.1-2.9-0.4-5.8-0.8-8.6
				c-0.4-2.8-1.1-5.6-1.8-8.3c-7.1-24.8-21.7-41.9-43.6-51.4c-11.1-4.8-22.9-7.4-35.2-7.9c-12.4-0.5-25.4,1.2-39.1,5.2
				c-15.6,4.5-30.9,12.1-46,22.8c-15.2,10.8-30.1,24.8-44.8,41.8l-0.3,0.4c-29.3,34.6-59.3,56.3-89.9,65.1
				c-13.2,3.8-27,4.2-41.3,1.2C566.3,751.3,551.6,745.2,536.5,735.7L536.5,735.7z M523.1,549.4c-2.1,2.2-5.6,2.4-7.9,0.4
				L523.1,549.4L523.1,549.4z M854.5,1352.9c5.3,18.4,12.9,33.8,22.8,46.1c9.8,12.2,21.9,21.5,36.2,27.9c14.6,6.5,30.2,10,46.8,10.5
				c16.8,0.5,34.7-1.9,53.8-7.4c37-10.6,65.1-29.7,84.2-57.1c9.4-13.5,15.2-28.2,17.3-44c2.1-15.9,0.5-33-4.7-51.4
				c-4.7-16.4-11.9-30.6-21.7-42.4c-9.7-11.8-22-21.5-36.7-28.8c-14.8-7.4-30.5-11.7-47-12.7c-16.6-1.1-34.2,1-52.7,6.4
				c-19.5,5.6-36.4,13.4-50.7,23.4c-14.2,9.9-25.9,22.1-35,36.3c-9,14.2-14.6,29.1-16.7,44.6C848.3,1319.8,849.6,1336,854.5,1352.9
				L854.5,1352.9z M868.2,1406.3c-10.9-13.6-19.2-30.3-24.9-50.2c-5.3-18.4-6.8-36.2-4.5-53.4c2.3-17.1,8.5-33.6,18.5-49.2
				c9.9-15.6,22.6-28.9,38.1-39.7c15.3-10.7,33.4-19.1,54.1-25.1c19.7-5.7,38.7-7.9,56.7-6.8c18.1,1.2,35.3,5.8,51.5,13.9
				c16.3,8.1,29.8,18.8,40.5,31.9c10.7,13.1,18.7,28.6,23.8,46.6c5.7,19.9,7.4,38.6,5.1,56.2c-2.4,17.7-8.8,34-19.3,49.1
				c-20.7,29.7-50.9,50.3-90.5,61.7c-20.2,5.8-39.3,8.4-57.4,7.8c-18.2-0.6-35.3-4.4-51.2-11.5
				C892.7,1430.4,879.1,1420,868.2,1406.3z" clip-rule="evenodd"/><path fill="#284190" fill-rule="evenodd" d="M774.9,725c-41.1,14.9-67.4,16.3-79,4.3c-11.7,5.6-19.4,0.2-23.1-31.4c-12.2-27.7-1.8-72,15.4-50.1
			c14.2-36.4,40-36.3,96.1-12.4c9.3,17,5.7,21.6,9.8,32.2C794.7,703.8,788.3,722.9,774.9,725z" clip-rule="evenodd"/><path fill="#284190" fill-rule="evenodd" d="M767.5,668.2c-13.9-15-27.7-13.6-64,0.5c-22.9-6-28.1-17.3-18.4-35.6c13.7-25.9,39.3-12.7,81-24.4
			C763.9,636.5,811.2,636.5,767.5,668.2z" clip-rule="evenodd"/><path fill="#284190" fill-rule="evenodd" d="M680.6,651.9c4.4-3.4,5.9-7.2,4.3-11.2c-6.8-3.8-13.3-4-19.4-0.4C669.2,640.6,674.3,644.4,680.6,651.9z" clip-rule="evenodd"/><path fill="#284190" fill-rule="evenodd" d="M688.3,644.2c-3.2,3.5-6.1,4.3-8.7,2.3c-1.6-6.7-0.7-12.5,2.9-17.6C682,632.4,684,637.5,688.3,644.2z" clip-rule="evenodd"/><path fill="#284190" fill-rule="evenodd" d="M743,649.4c-7.1,2.9-10.4,7.3-9.9,13.3c7.6,7.6,16.1,10.2,25.6,7.7C753.9,668.7,748.7,661.7,743,649.4z" clip-rule="evenodd"/><path fill="#284190" fill-rule="evenodd" d="M752.6,652.3c-7.1,2.9-10.4,7.3-9.9,13.3c7.6,7.6,16.1,10.2,25.6,7.7C763.5,671.6,758.3,664.6,752.6,652.3z" clip-rule="evenodd"/><path fill="#ffb17d" fill-rule="evenodd" d="M654.7,826.3c-4.1,1.5-5.3,6.8-2.3,9.9c13.8,14.9,35.4,26.5,41.8,27.9c20,4.6,96.5,9,104.4-33.6
			c0.4-2.4,0.1-4-3.7-5.4c-28.2-9.6-42.3-2.2-31.6-67.1c0.6-3.9,0.2-6.7-7.1-7.7c-52.3-6.9-56.7-10.5-62-7.4
			c-0.3,0.1,1.8,50.9-10.3,64.2C675.5,816.7,664,823,654.7,826.3z" clip-rule="evenodd"/><path fill="#ef8161" fill-rule="evenodd" d="M761.9,763.3c-0.7,11.1-3.8,35.9,0.1,45c-0.1,0-22.5-14.3-39.5-17.6c-3.3-0.7-6.7-1.2-9.5-3
			c-3.9-2.5-18.7-11.5-19.7-32.2C707.1,778.6,733.6,783.9,761.9,763.3z" clip-rule="evenodd"/><path fill="#ffb17d" fill-rule="evenodd" d="M738.7,786.9c-24.1,3.7-38.4-8.2-48.6-32.1c-6.1-14.2-17.4-63.1-1.7-84c22.8-30.4,92.6-26.1,94,26.5
			C782,720.2,765.2,777.9,738.7,786.9z" clip-rule="evenodd"/><path fill="#ffb17d" fill-rule="evenodd" d="M679.3,709.6c9.9-2.1,8.9,18.2,8.2,28.2C686,757.6,663.7,712.9,679.3,709.6z" clip-rule="evenodd"/><path fill="#ffb17d" fill-rule="evenodd" d="M683.7,732.5c-0.3,0-0.5-0.1-0.8-0.3c-4-3.4-5.1-8.4-3.1-13.5c0.2-0.6,0.9-0.9,1.5-0.7
			c0.6,0.2,0.9,0.9,0.7,1.5c-1.6,4.1-0.8,8.1,2.4,10.8c0.5,0.4,0.6,1.2,0.1,1.7C684.4,732.3,684.1,732.5,683.7,732.5z" clip-rule="evenodd"/><path fill="#ffb17d" fill-rule="evenodd" d="M781.9,714.3c-9.5-3.3-11.2,16.9-11.8,26.9C769.1,761,796.9,719.6,781.9,714.3z" clip-rule="evenodd"/><path fill="#284190" fill-rule="evenodd" d="M790.6,616.3c-11.9,4.3-23.5,7-33.7,5.3c-52.1-8.8-81.7,33.2-83.7,55.3c12.5-11.7,22.5-14.2,29.9-7.7
			C773.4,676.5,801.8,649,790.6,616.3z" clip-rule="evenodd"/><path fill="#284190" fill-rule="evenodd" d="M709.8,619.7c2.7,5.3,7.5,7.9,14.3,7.8c9.2-5.1,12.8-11.2,10.8-18.2C732.6,612.8,724.3,616.2,709.8,619.7z" clip-rule="evenodd"/><path fill="#284190" fill-rule="evenodd" d="M749,615.8c2.7,5.3,1.9,13.6,8.8,13.4c8.8,23.8,18.3-14.5,16.3-23.8C771.7,608.9,763.4,612.4,749,615.8z" clip-rule="evenodd"/><path fill="#ffb17d" fill-rule="evenodd" d="M866,1692.5c-8,7.9-21.8,8-35.1,2.3l-5.7-61.4l39.6-3.7L866,1692.5z" clip-rule="evenodd"/><path fill="#284190" fill-rule="evenodd" d="M895.3,1721.8c11.9,11.4,15.3,18.9,17.8,28.7c1.8,7.2,1,13.1-6.6,14.6c-15.1,2.9-29.5,4.6-39.6,2.4
			c-5.4-1.3-11.5-2.9-31.1-19.7c-11.4-9.8-7.5-8.6-7.8-53.4c0-1.8,1.7-3.1,3.4-2.7c13.5,3.1,27.7-2.1,33.7-4.7
			c1.5-0.7,3.3,0.2,3.8,1.8C873.6,1706.2,869.5,1697,895.3,1721.8z" clip-rule="evenodd"/><path fill="#ffb17d" fill-rule="evenodd" d="M628.2,1691.4c8.7,7.1,22.4,6.1,35.2-0.8l0.2-61.6l-39.8-0.2L628.2,1691.4z" clip-rule="evenodd"/><path fill="#284190" fill-rule="evenodd" d="M601.6,1723.2c-10.8,12.4-13.6,20.2-15.2,30.1c-1.2,7.3,0.2,13.1,7.8,13.9c15.3,1.5,29.8,2,39.6-1.2
			c5.3-1.7,11.2-3.9,29.2-22.4c10.5-10.8,6.7-9.2,3.1-53.9c-0.1-1.8-1.9-3-3.6-2.4c-13.1,4.3-27.8,0.4-34-1.7
			c-1.6-0.5-3.3,0.5-3.6,2.1C621.9,1705.8,625.1,1696.2,601.6,1723.2z" clip-rule="evenodd"/><path fill="#4567c5" fill-rule="evenodd" d="M873.9,1667.6c2.1-1.1,3.4-3.2,3.4-5.5c-0.9-128.9-7.7-250.4-18.7-367.2c-15.8-167.2-3.9-148.1-44.9-261
			c-5.6-15.5,3.3-11.1-180.2,9.7c-28.3,118.4-41.9,356.9-19.1,621.6c0.2,2.4,2,4.3,4.3,5.1c16.7,5.4,30.5,7.4,49.8,3.2
			c2.6-0.6,4.6-2.8,4.8-5.5c36.5-429.3,53.6-454.6,53.6-454.6c0-0.8,1.2-0.9,1.3,0c23.1,127.4,55.8,299.2,90.6,456.8
			c0.6,2.7,2.8,4.6,5.6,4.8C840.8,1676.2,860.7,1674.4,873.9,1667.6z" clip-rule="evenodd"/><path fill="#fffdf5" fill-rule="evenodd" d="M696,801.4c15.6,25.7,50.6,21.4,64.4,1.6c16.9,20.1,41.9,25.3,62.6,36.8c-0.1,78.8-0.5,174.2,9.6,230.9
			c-79.5,18.6-133,23.8-207.4,8.2c17.3-79.8-3.8-195.9,3.8-239.8C648.6,827.5,671.6,824.2,696,801.4z" clip-rule="evenodd"/><path fill="#fff" fill-rule="evenodd" d="M626.7,1077.9c75,15.6,129.9,9.2,204.4-8.2c-9.5-55.3-9.4-144.3-9.4-222.8l0-6.4c-6.1-3.3-12.7-6.2-19.1-9
			c-14.9-6.5-30.3-13.2-42.1-26.5c-7.6,9.8-20.8,15.9-34,15.5c-12.9-0.4-23.8-6.5-30.8-17.1c-15.8,14.4-31.4,21-45.1,26.8
			c-7.2,3-14,5.9-20.4,9.6c-2.9,17.7-1.3,47,0.5,80.9C633.4,969.6,636.8,1030.5,626.7,1077.9L626.7,1077.9z M708.3,1089.3
			c-26.2,0-53.2-2.8-83.4-9.2l-1.3-0.3l0.3-1.3c10.3-47.3,6.9-108.5,4.2-157.8c-1.9-34.4-3.5-64.1-0.4-82l0.1-0.6l0.5-0.3
			c6.7-4,13.8-6.9,21.2-10.1c14.6-6.1,29.6-12.5,45.5-27.3l1.2-1.1l0.8,1.4c6.5,10.7,17,16.8,29.5,17.2c13,0.4,25.8-5.8,32.7-15.7
			l1-1.4l1.1,1.3c11.5,13.7,27.2,20.5,42.3,27c6.7,2.9,13.6,5.9,20,9.4l0.7,0.4v7.9c-0.1,79-0.2,168.6,9.5,223.6l0.2,1.2l-1.2,0.3
			C787,1082.7,748.5,1089.3,708.3,1089.3z" clip-rule="evenodd"/><path fill="#ece4d8" fill-rule="evenodd" d="M725.1,838.8c0,1.5-1.2,2.8-2.8,2.8s-2.8-1.2-2.8-2.8c0-1.5,1.2-2.8,2.8-2.8S725.1,837.2,725.1,838.8z" clip-rule="evenodd"/><path fill="#ece4d8" fill-rule="evenodd" d="M726.7,876.6c0,1.5-1.2,2.8-2.8,2.8c-1.5,0-2.8-1.2-2.8-2.8c0-1.5,1.2-2.8,2.8-2.8
			C725.4,873.8,726.7,875.1,726.7,876.6z" clip-rule="evenodd"/><path fill="#ece4d8" fill-rule="evenodd" d="M728.2,914.4c0,1.5-1.2,2.8-2.8,2.8c-1.5,0-2.8-1.2-2.8-2.8c0-1.5,1.2-2.8,2.8-2.8
			C727,911.7,728.2,912.9,728.2,914.4z" clip-rule="evenodd"/><path fill="#ece4d8" fill-rule="evenodd" d="M727,952.3c0,1.5-1.2,2.8-2.8,2.8c-1.5,0-2.8-1.2-2.8-2.8c0-1.5,1.3-2.8,2.8-2.8
			C725.8,949.5,727,950.8,727,952.3z" clip-rule="evenodd"/><path fill="#ece4d8" fill-rule="evenodd" d="M724.6,991.2c0,1.5-1.2,2.8-2.8,2.8c-1.5,0-2.8-1.3-2.8-2.8c0-1.5,1.2-2.8,2.8-2.8
			C723.3,988.4,724.6,989.6,724.6,991.2z" clip-rule="evenodd"/><path fill="#ece4d8" fill-rule="evenodd" d="M722.4,1029.7c0,1.5-1.2,2.8-2.8,2.8c-1.5,0-2.8-1.2-2.8-2.8c0-1.6,1.2-2.8,2.8-2.8
			C721.1,1026.9,722.4,1028.1,722.4,1029.7z" clip-rule="evenodd"/><path fill="#ece4d8" fill-rule="evenodd" d="M724.6,1072.2c0,1.5-1.2,2.8-2.8,2.8c-1.5,0-2.8-1.2-2.8-2.8c0-1.5,1.2-2.8,2.8-2.8
			C723.3,1069.4,724.6,1070.7,724.6,1072.2z" clip-rule="evenodd"/><path fill="#fffdf5" fill-rule="evenodd" d="M752.8,922.8c0,2,0.5,2.4,1.7,2.4c10.1,0.3,20.2,0.1,30.3-0.6c4-0.3,2.9-21.2,2.5-25.7
			c-0.2-2.2-25.5-1.9-33.8,2.1C753.4,901.1,752.6,908.4,752.8,922.8z" clip-rule="evenodd"/><path fill="#4688cb" fill-rule="evenodd" d="M754.3,924h0.3c10,0.3,20.2,0.1,30.2-0.6c1.7-1,2.2-13.8,1.3-23.8c-3.1-1.2-23.2-1-31.4,2.4
			c-0.2,2.2-0.7,9.2-0.6,20.9C754.1,923.6,754.2,923.9,754.3,924L754.3,924L754.3,924z M763.2,926.7c-2.9,0-5.8-0.1-8.7-0.1
			c-2.5-0.1-2.9-1.9-2.9-3.7c-0.2-14.3,0.6-21.6,0.6-21.9l0.1-0.7l0.6-0.3c8-3.9,31-4.6,34.7-2.6c0.8,0.4,1,1,1,1.4
			c0,0.2,1.8,21.8-1.8,26.1c-0.7,0.8-1.4,1-1.8,1C777.7,926.4,770.4,926.7,763.2,926.7z" clip-rule="evenodd"/><path fill="#fffdf5" fill-rule="evenodd" d="M753.4,900l-0.2-6c0-1.3,34-2.9,34-0.7l0.1,4.6C787.3,899.1,753.5,902.2,753.4,900z" clip-rule="evenodd"/><path fill="#4688cb" fill-rule="evenodd" d="M754.7,899.3c4.1,0.9,26.8-1,31.3-2.2l-0.1-3.2c-3.9-1-26.9-0.1-31.4,0.8L754.7,899.3L754.7,899.3z
			 M758.6,902.1c-4.9,0-6.4-0.6-6.4-2l-0.2-6.8l0.7-0.5c2.4-1.5,31.5-2.8,34.9-0.9c0.8,0.5,0.9,1.2,0.9,1.4l0.1,4.6
			c0,1.2,0,1.8-10.6,2.9c-5.9,0.6-12.4,1.1-17.1,1.2C760.1,902.1,759.3,902.1,758.6,902.1z" clip-rule="evenodd"/><path fill="#4688cb" fill-rule="evenodd" d="M714.7,838.9c-0.4,0-0.8-0.1-1.1-0.3c-10.2-5.9-20-15.7-28.3-28.2c-0.4-0.6-0.2-1.4,0.4-1.8
			c0.6-0.4,1.4-0.2,1.8,0.3c7.9,12.1,17.3,21.5,27,27.2c2.3-6.4,5.8-11.9,10.4-16.3c0.6-0.6,1.6-0.6,2.3,0
			c5.8,5.3,9.7,10.2,12.4,15.5c10.2-5.3,21.2-14.3,29.6-24.2c0.5-0.5,1.3-0.6,1.8-0.1c0.5,0.4,0.6,1.3,0.2,1.8
			c-8.6,10.2-20.1,19.6-30.7,25c-0.5,0.3-1.1,0.3-1.7,0.1c-0.6-0.2-1-0.6-1.3-1.1c-2.4-4.9-6-9.6-11.3-14.5
			c-4.1,4.1-7.2,9.2-9.2,15.1c-0.2,0.6-0.7,1.1-1.3,1.4C715.2,838.8,714.9,838.9,714.7,838.9z" clip-rule="evenodd"/><path fill="#ece4d8" fill-rule="evenodd" d="M728.7,1083.4c-0.7,0-1.2-0.5-1.3-1.2c-4.7-42.3-2.8-66.1-0.6-93.7c2.7-33.8,6.1-75.8-2.1-167.9
			c-0.1-0.7,0.5-1.3,1.2-1.4c0.7-0.1,1.3,0.5,1.4,1.2c8.3,92.3,4.9,134.4,2.1,168.3c-2.2,27.5-4.1,51.2,0.6,93.3
			c0.1,0.7-0.4,1.3-1.1,1.4H728.7z" clip-rule="evenodd"/><path fill="#4688cb" fill-rule="evenodd" d="M710.3,1065.2c-0.1,1.1,0,2.2,0.3,3.2c3.3,11.4,13.7,31.3,20.5,32.2c7,0.9,19.3-19.6,23.4-31.1
			c0.5-1.3,0.6-2.6,0.4-4c-1.6-10.8-9.5-68.5-21.8-223.3c-0.6-7.4-1.7-15.6-7.6-20c-4.1,5.4-2.6,7.7-2.5,20.4
			C723.4,888.8,717.9,996.3,710.3,1065.2z" clip-rule="evenodd"/><path fill="#4688cb" fill-rule="evenodd" d="M711.5,1065.3c-0.1,0.9,0,1.8,0.2,2.7c3.3,11.6,13.6,30.6,19.4,31.3c5.6,0.8,17.7-18.3,22-30.2
			c0.4-1.1,0.5-2.2,0.3-3.3c-1.5-10-9.5-68-21.8-223.3c-0.5-6.6-1.5-14-6.1-18.2c-2,3-1.9,5.2-1.7,10.8c0.1,2.1,0.2,4.6,0.3,7.7
			C724.7,888.5,719.2,995.7,711.5,1065.3L711.5,1065.3z M731.5,1101.9l-0.6,0c-7.7-1-18.3-22-21.5-33.1c-0.4-1.2-0.5-2.5-0.3-3.7
			c7.7-69.5,13.1-176.6,12.7-222.3c0-3.1-0.1-5.6-0.2-7.6c-0.3-6.4-0.4-9.1,3-13.6l0.8-1l1,0.8c6.3,4.7,7.5,13.3,8.1,21
			c12.3,155.2,20.3,213.1,21.8,223.2c0.2,1.5,0.1,3.1-0.4,4.6C752.4,1079,740.2,1101.9,731.5,1101.9z" clip-rule="evenodd"/><path fill="#4688cb" fill-rule="evenodd" d="M739.1,824.2c0.1,5.7-5.1,15-11.8,15.1c-6.7,0.1-12.3-9-12.4-14.7c-0.1-5.7,4.3-3.4,11-3.6
			C732.5,821,738.9,818.5,739.1,824.2z" clip-rule="evenodd"/><path fill="#4688cb" fill-rule="evenodd" d="M718.6,822.1c-0.9,0-1.7,0.1-2,0.4c-0.3,0.3-0.5,1-0.5,2.1c0.1,5.1,5.2,13.4,11,13.4
			c5.9-0.1,10.8-8.7,10.7-13.8c0-1.3-0.5-1.7-0.6-1.8c-1-0.9-3.7-0.6-6.6-0.3c-1.5,0.1-3.1,0.3-4.8,0.3c-1.7,0.1-3.3-0.1-4.7-0.2
			C720.3,822.1,719.4,822.1,718.6,822.1L718.6,822.1z M727.1,840.6c-7.3,0-13.4-9.6-13.5-15.9c0-1.9,0.4-3.2,1.3-4.1
			c1.5-1.4,3.7-1.2,6.5-1c1.3,0.1,2.8,0.2,4.4,0.2c1.5,0,3.1-0.2,4.5-0.3c3.6-0.4,6.7-0.7,8.5,1c1,0.9,1.5,2.1,1.5,3.7
			c0.1,6.4-5.7,16.3-13.1,16.4H727.1z" clip-rule="evenodd"/><path fill="#619fdf" fill-rule="evenodd" d="M589.7,930.4c1.2-120.2,84.1-117.2,75.3-10.6c-7.4,89.2-1.8,107.7-14.2,126.4c-8.4,12.7-17,22.7-32.8,12.9
			C592.8,1043.6,589.4,955.3,589.7,930.4z" clip-rule="evenodd"/><path fill="#619fdf" fill-rule="evenodd" d="M672,1202.9c-1.6,7.6,3.9,5-84.6,17.3c-4.1,0.6-7.5-2.9-7-7c8-56.9,32.6-117.5,40.6-179.1
			c8.4-64.5-1.5-130.1,5-193.6c18.8-10.9,29.6-17.9,59.2-30.3c0.6-0.3,1.2,0.2,1.3,0.8C686.8,833.1,686.5,1132.8,672,1202.9z" clip-rule="evenodd"/><path fill="#8ab9e8" fill-rule="evenodd" d="M883.6,923.3c-20.7-118.3-105.3-101.4-79.2,2.3c21.8,86.9,24.4,105.9,39.7,122.2c10.4,11.2,28,22.9,40.8,9.3
			c11.5-12.2,3.2-41.9,1.6-56.2C883.5,974.9,888.1,949,883.6,923.3z" clip-rule="evenodd"/><path fill="#619fdf" fill-rule="evenodd" d="M783.5,1204.3c1.6,7.6-3.9,5.1,84.6,17.3c4.1,0.6,7.5-2.9,7-7c-8-56.9-32.6-117.6-40.6-179.1
			c-8.4-64.5,1.4-130.8-5.1-194.3c-18.8-10.9-28.6-16.4-58.5-28.9c-0.5-0.2-1,0.1-1,0.6C769.6,832.7,768.9,1133.8,783.5,1204.3z" clip-rule="evenodd"/><path fill="#4688cb" fill-rule="evenodd" d="M670.5,816.6c-4.3,19.2-10.3,29.3-17.2,46.7c-0.6,1.6,0.5,3.4,2.2,3.5c4.5,0.3,9,1.2,13.3,2.6
			c0.7,0.2,1,1.1,0.6,1.8c-13.3,19.3-14.5,19.3-13,28.4c6.2,37,16.3,109.9,26.8,146c2.4-91.7,4.4-164.1,3.3-234.9
			c0-0.4-0.4-0.7-0.8-0.5L670.5,816.6z" clip-rule="evenodd"/><path fill="#4688cb" fill-rule="evenodd" d="M671.7,817.5c-3.1,13.4-6.9,22.3-11.4,32.6c-1.8,4.2-3.8,8.6-5.8,13.7c-0.2,0.4-0.1,0.8,0.1,1.1
			c0.2,0.3,0.6,0.6,1,0.6c4.6,0.3,9.2,1.2,13.6,2.6c0.7,0.2,1.3,0.8,1.6,1.5c0.3,0.7,0.1,1.6-0.3,2.2c-1.8,2.6-3.4,4.9-4.8,6.9
			c-8.8,12.5-9.3,13.3-8.1,20.6c1.4,8.2,3,18.2,4.7,29.1c5.3,33.9,12.5,79.2,19.8,108.2l0.2-6.3c2.2-85,4-152.2,2.9-218.7
			L671.7,817.5L671.7,817.5z M684.2,1053.8l-2.3-8c-8.2-28.1-16.3-79.5-22.2-117c-1.7-10.9-3.3-20.9-4.7-29.1
			c-1.4-8.3-0.5-9.7,8.5-22.5c1.4-2,3-4.2,4.8-6.8c-4.1-1.1-8.5-2-12.9-2.3c-1.2-0.1-2.3-0.7-3-1.7c-0.7-1.1-0.8-2.3-0.3-3.5
			c2-5.1,3.9-9.5,5.8-13.8c4.5-10.3,8.4-19.2,11.4-32.8l0.1-0.6l15.6-6.9c0.6-0.2,1.2-0.2,1.8,0.1c0.5,0.3,0.8,0.9,0.9,1.5
			c1.1,66.9-0.6,134.4-2.9,219.8L684.2,1053.8z" clip-rule="evenodd"/><path fill="#4688cb" fill-rule="evenodd" d="M785.9,818.8c4.3,19.2,10.3,29.3,17.2,46.7c0.6,1.6-0.5,3.4-2.2,3.5c-4.5,0.3-9,1.1-13.3,2.5
			c-0.7,0.2-1,1.1-0.6,1.8c13.3,19.4,14.5,19.3,13,28.4c-6.2,37-17.1,109.8-27.6,145.8c-3.5-92.6-3.6-157.7-2.5-234.7
			c0-0.4,0.4-0.7,0.8-0.5L785.9,818.8z" clip-rule="evenodd"/><path fill="#4688cb" fill-rule="evenodd" d="M771.3,813.9c-1.1,71.2-1.1,134.4,2.2,225.2c8-30.9,15.9-79.7,21.8-116.1c1.3-7.9,2.5-15.2,3.5-21.4
			c1.2-7.3,0.7-8.1-8.1-20.6c-1.4-2-3-4.2-4.8-6.8c-0.4-0.6-0.6-1.5-0.3-2.2c0.3-0.7,0.8-1.3,1.6-1.5c4.4-1.4,9-2.3,13.6-2.6
			c0.4,0,0.7-0.2,1-0.6c0.2-0.4,0.3-0.8,0.1-1.1c-2-5-3.9-9.4-5.7-13.7c-4.5-10.3-8.3-19.2-11.4-32.6L771.3,813.9L771.3,813.9z
			 M771.5,1055.5l-0.3-8c-3.6-95.8-3.6-160.9-2.5-234.8c0-0.6,0.3-1.2,0.9-1.6c0.5-0.3,1.2-0.4,1.8-0.1l15.6,6.9l0.1,0.6
			c3,13.6,6.9,22.4,11.4,32.8c1.9,4.3,3.8,8.7,5.8,13.7c0.5,1.2,0.3,2.4-0.3,3.5c-0.7,1-1.7,1.7-3,1.8c-4.4,0.3-8.8,1.1-13,2.5
			c1.9,2.4,3.5,4.7,4.8,6.6c8.9,12.8,9.9,14.1,8.5,22.5c-1.1,6.2-2.2,13.5-3.5,21.4c-6.5,39.9-15.4,94.5-24.1,124.6L771.5,1055.5z" clip-rule="evenodd"/><path fill="#4688cb" fill-rule="evenodd" d="M616.3,1094.5l0.3-9.7c0.1-2.1,54.9-1,54.7,2.6l-0.4,7.4C670.9,1096.7,616.2,1098.1,616.3,1094.5z" clip-rule="evenodd"/><path fill="#4688cb" fill-rule="evenodd" d="M837.5,1094.5l-0.3-9.7c-0.1-2.1-54.9-1-54.7,2.6l0.4,7.4C782.9,1096.7,837.6,1098.1,837.5,1094.5z" clip-rule="evenodd"/><path fill="#514947" fill-rule="evenodd" d="M672.1,1013.4c-0.6,0-1.1-0.4-1.3-1c-5.3-24.6-9.7-44.3-13.2-60c-14.6-65-14.6-65,1.9-79.3l1.7-1.5
			c0.5-0.5,1.3-0.4,1.8,0.1c0.5,0.6,0.4,1.4-0.1,1.8l-1.7,1.5c-15.3,13.4-15.3,13.4-1.1,76.8c3.5,15.8,8,35.4,13.2,60.1
			c0.2,0.7-0.3,1.4-1,1.5L672.1,1013.4z" clip-rule="evenodd"/><path fill="#ffb17d" fill-rule="evenodd" d="M713.4,1025.2c-4.7-11.5-5.7-30.9-5.1-30.8c-13.1-3-21.4,17.2-32.7-3.1c-4.5-8.8-42.1-37.7-35.4-24.4
			c2.5,4.9,9.1,13.4,6,11.4c-21.8-13.7-45.5-34.2-42.8-24.4c1.2,4.3,31.4,29,28.5,27.1c-0.7-0.5-36-24.9-36.8-24.9
			c-11.4,0.8,10.8,15.6,29.8,31.2c2.4,2-33.8-19.1-33.9-19.1c-7.4,3.2,4.1,8.8,34.4,30c4.1,2.9-35.8-20.9-29.6-7.9
			c36.7,26.8,58.9,33.7,67,35.5C666.3,1027.6,713.4,1025.2,713.4,1025.2z" clip-rule="evenodd"/><path fill="#ed7e5e" fill-rule="evenodd" d="M627.3,997.8c4.6,2.8,9.5,5,14.7,6.5c2.8,0.8,0.5,5.2-15.7-4.8C625.1,998.9,626.2,997.1,627.3,997.8z" clip-rule="evenodd"/><path fill="#ed7e5e" fill-rule="evenodd" d="M629.3,988.1c5.5,3.9,11.7,7,18.2,8.9c1.3,0.4,0.7,2.4-0.6,2C626,992.7,626.3,985.9,629.3,988.1z" clip-rule="evenodd"/><path fill="#ed7e5e" fill-rule="evenodd" d="M635.7,982c3.5,3.8,8.5,6.3,13.7,6.8c1.4,0.1,1.1,2.2-0.2,2c-5.7-0.6-11.1-3.3-14.9-7.4
			C633.3,982.4,634.8,981,635.7,982z" clip-rule="evenodd"/><path fill="#ed7e5e" fill-rule="evenodd" d="M648.2,981.5c-0.7-1.1,1-2.2,1.7-1.1c2.7,4.1,8.3,7.6,13.8,8.5c1.3,0.2,1,2.3-0.3,2
			C657.3,989.8,651.1,985.9,648.2,981.5z" clip-rule="evenodd"/><path fill="#8ab9e8" fill-rule="evenodd" d="M684.6,1032.2c0.1,2.6,1.8,4.8,4.2,5.5c55.9,18,157.1,36.4,175.1,31.7c10.8-2.9,24.7-11.4,25.6-23.2
			c3.9-53.5-149.4-57.2-193.4-54.6c-2,0.1-3.9,1.3-4.9,3.1C684.2,1006.9,683.9,1018.1,684.6,1032.2z" clip-rule="evenodd"/><path fill="#ffb17d" fill-rule="evenodd" d="M700.2,829c4.1-6.6,27.9-31.1,13.3-42.2l-0.1-0.4c3.2-7.4-1.6-9.5-4-8.5c-0.2,0.1-0.5-0.1-0.4-0.3
			c1-4.5-7.2-12.5-15.6,1.7c-1.8,3-3.6,6.3-6.5,8.2c-0.5,0.4-1.2-0.2-0.9-0.8c2.9-7.1,9.8-17.5,5.4-25.6c-0.6-1-1.9-1.7-3-1.2
			c-4.2,1.5-5,9-6,11.5c-3.7,9.1-9.3,6.6-8.2,22.8c1.4,21.8,4.3,32.2-32.2,114.1c1.4-6.9,49,19.8,48.4,6.8
			C689.4,894.6,686,851.7,700.2,829z" clip-rule="evenodd"/><path fill="#8ab9e8" fill-rule="evenodd" d="M701.7,847.2c1,1.5,1.4,3.4,1.1,5.1c-23.1,139-32.7,183.6-41.1,196.4c-18.6,28.2-51.7,17.5-56.6-13.1
			c-4.6-28.4,35.2-152.6,54.6-200.8c1.2-2.9,4.1-4.7,7.2-4.5C683.6,831.6,694.3,836.1,701.7,847.2z" clip-rule="evenodd"/><path fill="#619fdf" fill-rule="evenodd" d="M523.6,382.7l-2-3.6l9.8-0.8L729,347.2c4-0.6,8.3-1.9,9.7-2.8l171.8-111.8l7.3-5.2c0.9-0.1,1.9,4.4,1.4,4.8
			L740.3,348.6c-1.4,0.9-5.7,2.1-9.7,2.8l-202.3,31.8C524.4,383.8,524.4,384.1,523.6,382.7z" clip-rule="evenodd"/><path fill="#619fdf" fill-rule="evenodd" d="M522,378.6l178.8-116.4c1.4-0.9,5.7-2.1,9.7-2.8l202.3-31.8c4-0.6,6.1-0.4,4.7,0.5L738.7,344.5
			c-1.4,0.9-5.7,2.1-9.7,2.8l-202.3,31.8C522.8,379.7,520.7,379.5,522,378.6z" clip-rule="evenodd"/><path fill="#619fdf" fill-rule="evenodd" d="M632.2,362.5c-1.1,2-1,3.6,0.2,4.8c8.3,36.6,14.1,63.3,17.3,79.9c27-18.1,54.3-27.7,82-28.9
			c19-0.8,12,2.1,28.3-8.3c33.5-21.3,75.5-34.2,128.1-33.5c4.9,1.1-44.6-79.5-56.5-92.6l-93,60.5c-1.4,0.9-5.7,2.1-9.7,2.8
			L632.2,362.5z" clip-rule="evenodd"/><path fill="#ef6a30" fill-rule="evenodd" d="M723.2,294.8c2.4-0.5,4.8,1,5.3,3.4c0.5,2.4-1,4.8-3.4,5.3l-99,57.9l0.9,18.5c0,0.1,0,0.3,0,0.4l6.8,163.8
			c0.1,2.4-1.8,4.5-4.2,4.6c-2.4,0.1-4.5-1.8-4.6-4.2l-6.8-163.8c0-0.1,0-0.2,0-0.4l-1.1-22.3h0c-0.1-2.1,1.3-4.1,3.5-4.6
			L723.2,294.8z" clip-rule="evenodd"/><path fill="#ef6a30" fill-rule="evenodd" d="M616.5,380.4c-0.1-3.4,2.5-6.3,5.9-6.4c3.4-0.1,6.3,2.5,6.4,5.9l14.8,169.4c0.1,3.4-10.1,10.9-13.4,11
			c-3.4,0.1-12.6-3.9-12.8-7.3L616.5,380.4z" clip-rule="evenodd"/><path fill="#f4d1b7" fill-rule="evenodd" d="M630,394.4c1.8,3.3,3,8.4,3.2,12.8c0.2,4.3-0.4,7.1-1.1,10.1l-15.4,0.8c-1.1-2.8-1.7-5.6-1.9-9.9
			c-0.2-4.3,0.4-9.6,1.8-13L630,394.4z" clip-rule="evenodd"/><path fill-rule="evenodd" d="M632.4,367.3c0.2,1,1.3,5.9,1.6,6.9l97.9-19.4c3.9-0.8,8.3-1.9,9.7-2.8c11.3-7.3,87.3-55.2,92.8-64.8
			l-94.1,61.3c-1.4,0.9-5.7,2.1-9.7,2.8l-98.5,15.5C632.2,367,632.3,367.1,632.4,367.3z" clip-rule="evenodd" opacity=".29"/><path fill="#619fdf" fill-rule="evenodd" d="M995.3,1529.8h-46.3c-2.6,0-4.7,2.1-4.7,4.7c0,2.6,2.1,4.7,4.7,4.7h46.3c2.6,0,4.7-2.1,4.7-4.7
			C1000,1531.9,997.9,1529.8,995.3,1529.8z" clip-rule="evenodd"/><path fill="#c2def9" fill-rule="evenodd" d="M953.2,1539.3V1697c0,10.4,8.4,18.8,18.8,18.8l0,0c10.4,0,18.8-8.4,18.8-18.8v-157.7H953.2z" clip-rule="evenodd"/><rect width="37.7" height="7.3" x="953.2" y="1539.3" fill="#a3cffb" fill-rule="evenodd" clip-rule="evenodd"/><path fill="#fb9674" fill-rule="evenodd" d="M961.2,1594.2v99.4c0,6,4.9,10.9,10.9,10.9l0,0c6,0,10.9-4.9,10.9-10.9v-99.4H961.2z" clip-rule="evenodd"/><rect width="37.7" height="11.2" x="953.2" y="1566.8" fill="#a3cffb" fill-rule="evenodd" clip-rule="evenodd"/><path fill="#619fdf" fill-rule="evenodd" d="M1059.1,1513.1h-46.3c-2.6,0-4.7,2.1-4.7,4.7c0,2.6,2.1,4.7,4.7,4.7h46.3c2.6,0,4.7-2.1,4.7-4.7
			C1063.9,1515.2,1061.8,1513.1,1059.1,1513.1z" clip-rule="evenodd"/><path fill="#c2def9" fill-rule="evenodd" d="M1017.1,1522.6v157.7c0,10.4,8.4,18.8,18.8,18.8l0,0c10.4,0,18.8-8.4,18.8-18.8v-157.7H1017.1z" clip-rule="evenodd"/><rect width="37.7" height="7.3" x="1017.1" y="1522.6" fill="#a3cffb" fill-rule="evenodd" clip-rule="evenodd"/><path fill="#a3cffb" fill-rule="evenodd" d="M1025.1,1611.6v65.3c0,6,4.9,10.9,10.9,10.9c6,0,10.9-4.9,10.9-10.9v-65.3H1025.1z" clip-rule="evenodd"/><path fill="#619fdf" fill-rule="evenodd" d="M1123,1546h-46.3c-2.6,0-4.7,2.1-4.7,4.7c0,2.6,2.1,4.7,4.7,4.7h46.3c2.6,0,4.7-2.1,4.7-4.7
			C1127.8,1548.1,1125.7,1546,1123,1546z" clip-rule="evenodd"/><path fill="#c2def9" fill-rule="evenodd" d="M1081,1555.4v157.7c0,10.4,8.4,18.8,18.8,18.8l0,0c10.4,0,18.8-8.4,18.8-18.8l0-157.7H1081z" clip-rule="evenodd"/><rect width="37.7" height="7.3" x="1081" y="1555.4" fill="#a3cffb" fill-rule="evenodd" clip-rule="evenodd"/><path fill="#fabea7" fill-rule="evenodd" d="M1089,1597.7v112.1c0,6,4.9,10.9,10.9,10.9l0,0c6,0,10.9-4.9,10.9-10.9l0-112.1H1089z" clip-rule="evenodd"/><path fill="#c2def9" fill-rule="evenodd" d="M1144.9,1555.4v157.7c0,10.4,8.4,18.8,18.8,18.8l0,0c10.4,0,18.8-8.4,18.8-18.8v-157.7H1144.9z" clip-rule="evenodd"/><rect width="37.7" height="7.3" x="1144.9" y="1555.4" fill="#a3cffb" fill-rule="evenodd" clip-rule="evenodd"/><path fill="#a3cffb" fill-rule="evenodd" d="M1152.9,1672.4v37.3c0,6,4.9,10.9,10.9,10.9l0,0c6,0,10.9-4.9,10.9-10.9v-37.4H1152.9z" clip-rule="evenodd"/><path fill="#619fdf" fill-rule="evenodd" d="M934.8,1582.9h266.2c3.9,0,7-3.1,7-7c0-3.9-3.1-7-7-7H934.8c-3.9,0-7,3.1-7,7
			C927.8,1579.8,931,1582.9,934.8,1582.9z" clip-rule="evenodd"/><path fill="#619fdf" fill-rule="evenodd" d="M1201.1,1741.9H934.8c-3.9,0-7,3.1-7,7c0,3.9,3.1,7,7,7h266.2c3.9,0,7-3.1,7-7
			C1208.1,1745.1,1204.9,1741.9,1201.1,1741.9z" clip-rule="evenodd"/><rect width="37.7" height="11.2" x="1017.1" y="1550.1" fill="#a3cffb" fill-rule="evenodd" clip-rule="evenodd"/><rect width="37.7" height="11.2" x="1081" y="1582.9" fill="#a3cffb" fill-rule="evenodd" clip-rule="evenodd"/><rect width="37.7" height="11.2" x="1144.9" y="1582.9" fill="#a3cffb" fill-rule="evenodd" clip-rule="evenodd"/><rect width="6.4" height="159" x="937.8" y="1582.9" fill="#619fdf" fill-rule="evenodd" clip-rule="evenodd"/><rect width="6.4" height="159" x="1191.7" y="1582.9" fill="#619fdf" fill-rule="evenodd" clip-rule="evenodd"/><g><polygon fill="#619fdf" fill-rule="evenodd" points="1396.9 1727.7 1391 1721.1 1424.9 1690.9 1430.8 1697.5" clip-rule="evenodd"/><rect width="45.9" height="4.6" x="1410.9" y="1710" fill="#619fdf" fill-rule="evenodd" clip-rule="evenodd"/><path fill="#a3cffb" fill-rule="evenodd" d="M1564.6,1601.9c0,44.4-25.3,82.9-62.3,101.7c-3.9,2-7.8,3.7-11.9,5.3c-0.8,0.3-1.7,0.6-2.5,0.9l-0.2,0
			c-5.8,2-11.8,3.6-17.9,4.6c-4.5,0.7-9,1.2-13.7,1.5c-1.9,0.1-3.8,0.2-5.8,0.2c-3.5,0-6.9-0.2-10.3-0.5l0.3-1l1.1-4.6l6.3-25.2
			l1-4.2c0.5,0,1,0.1,1.6,0.1c1.9,0,3.9-0.1,5.8-0.2c14-1,26.9-5.6,37.9-12.9c21.2-14.1,35.2-38.3,35.2-65.6c0-14-3.6-27.1-10-38.5
			c-2-3.5-4.2-6.9-6.7-10c-2.6-3.4-5.6-6.7-8.8-9.6c-1.6-1.5-3.5-1.4-5.8-0.4c-3.4,1.4-7.7,4.9-12.4,8.1c-2.3,1.5-4.8,3-7.3,4.2
			l-0.3,0.1l11.4-39.3l5.7-19.8C1535.9,1514,1564.6,1554.6,1564.6,1601.9z" clip-rule="evenodd"/><rect width="145" height="17.3" x="1355.5" y="1667.5" fill="#8ab9e8" fill-rule="evenodd" clip-rule="evenodd"/><path fill="#095c60" fill-rule="evenodd" d="M1502.4,1700.9v43.4h-32.5v-43.4c0-8.9,7.2-16.1,16.1-16.1h0.3C1495.2,1684.8,1502.4,1692,1502.4,1700.9z" clip-rule="evenodd"/><path fill="#81d5d7" fill-rule="evenodd" d="M1495.2,1701c0-5-4.1-9.1-9.1-9.1c-5,0-9.1,4.1-9.1,9.1c0,5,4.1,9.1,9.1,9.1
			C1491.1,1710,1495.2,1706,1495.2,1701z" clip-rule="evenodd"/><path fill="#095c60" fill-rule="evenodd" d="M1526.9,1547.3c0,6.5-3,12.4-7.7,16.2c-3.6,2.9-8.2,4.7-13.2,4.7c-10.1,0-18.5-7.2-20.5-16.7
			c-0.3-1.4-0.4-2.8-0.4-4.2c0-11.6,9.4-20.9,20.9-20.9C1517.5,1526.4,1526.9,1535.7,1526.9,1547.3z" clip-rule="evenodd"/><path fill="#81d5d7" fill-rule="evenodd" d="M1515,1547.3c0,5-4,9-9,9c-5,0-9-4-9-9c0-5,4-9,9-9C1510.9,1538.3,1515,1542.3,1515,1547.3z" clip-rule="evenodd"/><rect width="7.5" height="10.8" x="1474.8" y="1656.7" fill="#8ab9e8" fill-rule="evenodd" clip-rule="evenodd"/><rect width="12" height="4.3" x="1472.6" y="1653.7" fill="#619fdf" fill-rule="evenodd" clip-rule="evenodd"/><polygon fill="#a3cffb" fill-rule="evenodd" points="1489.2 1516.5 1478.2 1555.7 1465.5 1600.2 1456.9 1597.8 1456.2 1597.6 1436.7 1592.1 1428 1589.6 1451.7 1505.9 1456.2 1507.2 1460.4 1508.4 1480.5 1514.1 1489.2 1516.5" clip-rule="evenodd"/><rect width="16.6" height="14.3" x="1436.6" y="1595.8" fill="#619fdf" fill-rule="evenodd" clip-rule="evenodd" transform="rotate(-74.204 1445.038 1603.09)"/><polygon fill="#095c60" fill-rule="evenodd" points="1496 1459.5 1493.6 1468.1 1488.3 1486.8 1480.5 1514.1 1460.4 1508.4 1468.1 1481.1 1473.4 1462.4 1475.9 1453.8" clip-rule="evenodd"/><polygon fill="#619fdf" fill-rule="evenodd" points="1497.9 1469.4 1492.6 1488 1488.3 1486.8 1468.1 1481.1 1463.8 1479.8 1469 1461.2 1473.4 1462.4 1493.6 1468.1" clip-rule="evenodd"/><polygon fill="#619fdf" fill-rule="evenodd" points="1496 1459.5 1493.6 1468.1 1488.3 1486.8 1480.5 1514.1 1460.4 1508.4 1468.1 1481.1 1473.4 1462.4 1475.9 1453.8" clip-rule="evenodd"/><path fill="#619fdf" fill-rule="evenodd" d="M1430.6,1666.2h-54.1c-0.7,0-1.3-0.6-1.3-1.3c0-0.7,0.6-1.3,1.3-1.3h54.1c5.7,0,18.3-3,25.3-4.7l2.9-0.8
			l27.4,1.2c0.7,0,1.3,0.7,1.3,1.4c0,0.7-0.7,1.3-1.4,1.3l-27-1.2l-2.5,0.7C1449.4,1663.2,1436.6,1666.2,1430.6,1666.2z" clip-rule="evenodd"/><path fill="#a3cffb" fill-rule="evenodd" d="M1532.6,1758.8v0.1h-180.8v-0.1c0-8,6.5-14.4,14.4-14.4h151.9C1526.1,1744.3,1532.6,1750.8,1532.6,1758.8z" clip-rule="evenodd"/><path fill="#8a8000" fill-rule="evenodd" d="M1465.5,1600.2l-8.7-2.4l-0.7,2.4v0l0.7-2.4h0L1465.5,1600.2l12.6-44.5c1.2-0.5,2.4-1.1,3.5-1.8l0,0
			c-1.1,0.7-2.3,1.3-3.5,1.8L1465.5,1600.2z" clip-rule="evenodd"/><path fill="#a3cffb" fill-rule="evenodd" d="M1456.2,1716v-31.2h44.3v-17.3h-6.5c21.2-14.1,35.2-38.3,35.2-65.6h0c0-14-3.6-27.1-10-38.5
			c4.7-3.8,7.7-9.6,7.7-16.2c0-11.6-9.4-20.9-20.9-20.9c-11.5,0-20.9,9.4-20.9,20.9c0,1.5,0.2,2.8,0.4,4.2c-1.2,0.8-2.5,1.6-3.8,2.4
			c-1.1,0.7-2.3,1.3-3.5,1.8l11.1-39.1h0l5.7-19.8c41,17.3,69.7,57.9,69.7,105.2c0,44.4-25.3,82.9-62.3,101.7v-2.7
			c0-8.9-7.2-16.1-16.1-16.1h-0.3c-8.9,0-16.1,7.2-16.1,16.1v13.5C1465.4,1715.2,1460.8,1715.7,1456.2,1716z" clip-rule="evenodd"/><polygon fill="#8ab9e8" fill-rule="evenodd" points="1500.5 1684.8 1456.2 1684.8 1456.2 1667.5 1474.8 1667.5 1482.3 1667.5 1494.1 1667.5 1500.5 1667.5" clip-rule="evenodd"/><path fill="#8ab9e8" fill-rule="evenodd" d="M1502.4,1744.3h-32.5v-29.9v-13.5c0-8.9,7.2-16.1,16.1-16.1h0.3c8.9,0,16.1,7.2,16.1,16.1v2.7V1744.3
			L1502.4,1744.3z M1486.1,1691.9c-5,0-9.1,4.1-9.1,9.1c0,5,4.1,9.1,9.1,9.1c5,0,9.1-4.1,9.1-9.1
			C1495.2,1696,1491.1,1691.9,1486.1,1691.9z" clip-rule="evenodd"/><path fill="#fff" fill-rule="evenodd" d="M1486.1,1710c-5,0-9.1-4.1-9.1-9.1c0-5,4.1-9.1,9.1-9.1c5,0,9.1,4.1,9.1,9.1
			C1495.2,1706,1491.1,1710,1486.1,1710z" clip-rule="evenodd"/><path fill="#619fdf" fill-rule="evenodd" d="M1506,1568.2c-10.1,0-18.5-7.2-20.5-16.7l0,0c-0.3-1.4-0.4-2.8-0.4-4.2c0-11.6,9.4-20.9,20.9-20.9
			c11.6,0,20.9,9.4,20.9,20.9c0,6.5-3,12.4-7.7,16.2l0,0C1515.6,1566.4,1511,1568.2,1506,1568.2L1506,1568.2z M1506,1538.3
			c-5,0-9,4-9,9c0,5,4,9,9,9c5,0,9-4,9-9C1515,1542.3,1510.9,1538.3,1506,1538.3z" clip-rule="evenodd"/><path fill="#fff" fill-rule="evenodd" d="M1506,1556.2c-5,0-9-4-9-9c0-5,4-9,9-9c5,0,9,4,9,9C1515,1552.2,1510.9,1556.2,1506,1556.2z" clip-rule="evenodd"/><polygon fill="#8ab9e8" fill-rule="evenodd" points="1465.5 1600.2 1456.9 1597.8 1456.9 1597.8 1456.9 1597.8 1456.2 1597.6 1456.2 1507.2 1460.4 1508.4 1480.5 1514.1 1489.2 1516.5 1489.2 1516.5 1478.2 1555.7" clip-rule="evenodd"/><path fill="#8ab9e8" fill-rule="evenodd" d="M1532.6,1758.9h-76.4v-14.6h13.7h32.5h15.8c8,0,14.5,6.5,14.5,14.4V1758.9z" clip-rule="evenodd"/></g><g><polygon fill="#619fdf" fill-rule="evenodd" points="372.3 1698.9 375.3 1754.4 347 1755.9 279 1708.4 278.8 1704.1" clip-rule="evenodd"/><polygon fill="#71aeec" fill-rule="evenodd" points="350.5 1753.1 347 1755.9 279 1708.4 278.8 1704.1" clip-rule="evenodd"/><path fill="#fff" fill-rule="evenodd" d="M285.2,1700.1c-0.1,1.6-0.2,3.2-0.4,4.9c0,0,56.6,36.4,66.9,45c0,0,10.3-16.7,1.5-46.3
			c0,0-65.8-44.7-71.6-47.9c0,0,1.5,6.2,2.6,15.7c0.1,0.5,0.1,1,0.2,1.5c0.8,7.4,1.4,16.5,0.9,26.1
			C285.2,1699.5,285.2,1699.8,285.2,1700.1z" clip-rule="evenodd"/><path fill="#dfe6f4" fill-rule="evenodd" d="M281.5,1655.9C281.5,1655.9,281.6,1655.9,281.5,1655.9c0.8,0.5,1.5,1,2.2,1.5c9.9,6.9,19.7,12.6,29.5,19.5
			c10.7,7.5,18.6,12.6,29.3,20.1c0.8,0.6,6,4.3,9,9.8c4.8,13,4.4,30.4-0.8,42.4c-3.1-2.5-8.9-6.6-15.9-11.3c0.7,0.1,1.3,0.3,2,0.4
			c0.8,0.1,1.6,0.2,2.4,0.2c2.3,0,4.3-0.5,5.8-1.5c0.1,0.1,0.2,0.1,0.4,0.2c2.7,1.5,4.5,2.5,4.5,2.5s-1.7-1.2-4.2-2.9
			c0,0-0.1-0.1-0.1-0.1c3.9-2.6,5.5-7.9,5.2-14c-0.9-16.2-12.6-24.6-25.1-32.5c-7.7-4.8-16.5-9.9-23.9-15.1
			c-6.4-4.4-13.8-9.4-19.2-14.5c-0.1-0.3-0.1-0.5-0.2-0.8C281.9,1657.3,281.5,1655.9,281.5,1655.9z" clip-rule="evenodd"/><path fill="#dfe6f4" fill-rule="evenodd" d="M345.6,1736.7c0,0,0.1,0.1,0.1,0.1c2.5,1.7,4.2,2.9,4.2,2.9s-1.8-0.9-4.5-2.5c-0.1-0.1-0.2-0.1-0.4-0.2
			C345.2,1736.9,345.4,1736.8,345.6,1736.7z" clip-rule="evenodd"/><path fill="#71aeec" fill-rule="evenodd" d="M277.5,1653l-0.2-3.7L498,1642l68,46.4c0,0-214.2,18.9-214.4,18.5c-3-5.6-8.2-9.3-9-9.9
			c-10.7-7.5-18.6-12.6-29.3-20.1c-9.9-6.9-19.7-12.6-29.5-19.5C281.7,1655.9,279.6,1654.5,277.5,1653z" clip-rule="evenodd"/><path fill="#71aeec" fill-rule="evenodd" d="M343.5,1694.2c14.2,12.6,14.9,46.9,3.4,61.8c0,0,216.4-11.9,217-11.9c7.9-0.4,10.6-14.7,11.4-20.5
			c1.2-8.7,0.5-42.1-14.8-41.3L343.5,1694.2z" clip-rule="evenodd"/><path fill="#5a909a" fill-rule="evenodd" d="M350.7,1749.3L350.7,1749.3c-0.5,1.1-0.9,2.1-1.5,3l0,0C349.8,1751.3,350.3,1750.3,350.7,1749.3z" clip-rule="evenodd"/><path fill="#66a2ad" fill-rule="evenodd" d="M349.3,1752.3L349.3,1752.3c-0.5,0.9-1.1,1.8-1.6,2.6C348.2,1754.1,348.8,1753.2,349.3,1752.3z" clip-rule="evenodd"/><polygon fill="#e7dbab" fill-rule="evenodd" points="350.7 1749.3 350.7 1749.3 350.7 1749.3 350.7 1749.3" clip-rule="evenodd"/><path fill="#dbcf93" fill-rule="evenodd" d="M351.5,1706.9C351.5,1706.9,351.6,1706.9,351.5,1706.9C351.6,1706.9,351.6,1706.9,351.5,1706.9
			c4.8,13,4.4,30.4-0.8,42.4l0,0C355.9,1737.3,356.3,1719.9,351.5,1706.9z" clip-rule="evenodd"/><path fill="#5a909a" fill-rule="evenodd" d="M350.8,1704.9C350.8,1704.9,350.8,1704.9,350.8,1704.9c0.3,0.7,0.6,1.3,0.8,2c0,0,0,0,0,0c0,0,0,0,0,0
			C351.3,1706.2,351,1705.6,350.8,1704.9z" clip-rule="evenodd"/><path fill="#619fdf" fill-rule="evenodd" d="M350.8,1705c3.6,4.5,6.6,9.5,8.5,15c1.9,5.3,2.4,10.4,3.3,15.9c0.4,2.8,1,6.6,3.5,8.4
			c3.1,2.2,19.8,3.1,30.8,3.1c3.5,0,6.4-0.1,8.2-0.2c14.6-1.3,29.2-1.6,44.5-2.5c30.7-1.7,58-1.9,88.5-5.1
			c9.9-1.1,22.1-1.9,28.9-10.4c2.7-3.4,4.8-7.2,6-11.4c1.2-3.8,1.4-7.8,2.1-11.8c0.5,4.3,0.6,8.4,0.6,11.8c0,2.4-0.2,4.4-0.4,5.8
			c0,0,0,0,0,0.1c-0.8,5.8-3.5,20-11.4,20.5c-0.6,0-217,11.9-217,11.9l0,0c0-0.1,0.1-0.1,0.1-0.2c0,0,0,0,0-0.1c0,0,0-0.1,0.1-0.1
			c0,0,0,0,0.1-0.1c0,0,0-0.1,0.1-0.1c0,0,0-0.1,0.1-0.1c0,0,0,0,0,0c0.1-0.1,0.1-0.1,0.2-0.2c0,0,0,0,0,0c0,0,0.1-0.1,0.1-0.1
			c0,0,0,0,0,0c0.6-0.8,1.1-1.7,1.6-2.6c0.5-1,1-2,1.5-3c0,0,0,0,0,0c5.2-12,5.6-29.4,0.8-42.3
			C351.3,1706.3,351.1,1705.6,350.8,1705z" clip-rule="evenodd"/><path fill="#4f8dcb" fill-rule="evenodd" d="M513.1,1684.9l7.1-0.4c4.2,8.3,6.6,17.7,7.1,26.9c0.6,10.9,0.1,24-3.7,34.8l-7.1,0.4
			C521.9,1729.1,523.2,1702.2,513.1,1684.9z" clip-rule="evenodd"/><path fill="#4f8dcb" fill-rule="evenodd" d="M499.7,1685.6l7.1-0.4c4.2,8.3,6.6,17.7,7.1,26.9c0.6,10.9,0.1,24-3.7,34.8l-7.1,0.4
			C508.5,1729.8,509.8,1703,499.7,1685.6z" clip-rule="evenodd"/><path fill="#4f8dcb" fill-rule="evenodd" d="M384.5,1691.9l37.1-2c4.2,8.3,6.4,17.6,7.1,26.9c0.8,10.9,0.8,24.2-3.7,34.8l-37,2
			C393.3,1736.2,394.6,1709.3,384.5,1691.9z" clip-rule="evenodd"/><polygon fill="#86bdf4" fill-rule="evenodd" points="277.3 1649.4 497.7 1637.2 565.7 1683.6 345.3 1695.7" clip-rule="evenodd"/><polygon fill="#619fdf" fill-rule="evenodd" points="450.8 1648.3 485.4 1646.4 530.4 1677.1 495.8 1679" clip-rule="evenodd"/><path fill="#71aeec" fill-rule="evenodd" d="M371,1626.6c7.6,13.4,7.1,41.6,1.8,56.2c0,0,173.9-9.7,174.3-9.8c4.8-0.3,8.6-11.2,9.2-16.8
			c0.9-8.2,0.1-40-12.4-39.3L371,1626.6z" clip-rule="evenodd"/><path fill="#4f8dcb" fill-rule="evenodd" d="M545.6,1621c0,0,6.1,4.4,6.7,24.4c0.3,9.8-0.5,17.6-5.4,22.5c-0.5,0.5,0.2,4.4,0.3,5.2l-191.6,10.7
			l-67.3-47.1l-0.2-3.8L545.6,1621z" clip-rule="evenodd"/><polygon fill="#71aeec" fill-rule="evenodd" points="288.1 1632.8 355.2 1679 546.9 1667.9 547.2 1673.1 355.6 1683.8 288.3 1636.7" clip-rule="evenodd"/><path fill="#fff" fill-rule="evenodd" d="M298.9,1631.6c-0.1,1.4-0.2,2.8-0.3,4.3c0,0,49.7,31.9,58.8,39.5c0,0,7-20.2,0.4-44.3c0,0-57-35.6-62.1-38.4
			c0,0,1.3,5.5,2.3,13.8c0.1,0.4,0.1,0.9,0.1,1.3c0.7,6.5,1.2,14.5,0.8,22.9C299,1631.1,299,1631.4,298.9,1631.6z" clip-rule="evenodd"/><path fill="#fff" fill-rule="evenodd" d="M359.7,1662.3c-0.4,4.9-1.2,9.5-2.3,13.1c0,0,176.6-9.9,177.1-9.9c6.6-0.4,8.9-11.7,9.6-16.4
			c1-6.9,0.5-33.6-12.3-32.9l-177.1,9.9c1.6,2.7,2.8,6.2,3.6,10.1c0.2,0.9,0.4,1.9,0.6,2.9c1.1,6.6,1.4,14,1,20.9
			C359.8,1660.8,359.7,1661.5,359.7,1662.3z" clip-rule="evenodd"/><path fill="#ebeadc" fill-rule="evenodd" d="M296.3,1595.3C296.3,1595.3,296.3,1595.3,296.3,1595.3c0.2,1,0.4,2.2,0.7,3.6c0,0,0,0,0,0
			C296.7,1597.4,296.5,1596.2,296.3,1595.3z" clip-rule="evenodd"/><path fill="#dfe6f4" fill-rule="evenodd" d="M296.3,1595.3c0.5,0.4,1,0.7,1.5,1.1c1.1,0.8,2.6,1.8,4.4,3c0,0.4,0,0.8,0.1,1.1c0,0,0,0,0,0c0,0,0,0,0,0.1
			c0,0,0,0,0,0.1c0,0,0,0,0,0c0,0,0,0,0,0.1c0,0,0,0,0,0c0,0,0,0.1,0,0.1c0,0,0,0,0,0c0,0.3,0,0.6,0.1,0.8c0,0,0,0,0,0
			c0,0,0,0.1,0,0.1l0,0c0,0.2,0.1,0.5,0.1,0.8c-2.8-1.8-4.8-3.2-5.5-3.6C296.7,1597.4,296.5,1596.2,296.3,1595.3L296.3,1595.3z
			 M329,1620.1c1.8,0.1,3.7,0.3,5.8,0.4c7.4,4.8,13.8,9,17.1,11.3c0,0,0.1,0,0.3,0c0.7,0,2.3-0.1,4.8-0.2c0.5,1.4,0.9,3,1.2,4.6
			c0,0,0,0,0,0c0.2,0.8,0.9,5.9,1.2,7.9C354.2,1632.9,338.6,1626.3,329,1620.1C329.1,1620.1,329,1620.1,329,1620.1z" clip-rule="evenodd"/><path fill="#dfe6f4" fill-rule="evenodd" d="M540.1,1621.4c0.1,0.2,0.2,0.3,0.3,0.5c0.1,0.2,0.2,0.3,0.3,0.5c0.1,0.2,0.2,0.3,0.3,0.5
			c0.1,0.2,0.2,0.4,0.3,0.5c0.1,0.2,0.1,0.4,0.2,0.5c0.1,0.2,0.2,0.4,0.2,0.6c0.1,0.3,0.3,0.7,0.4,1c2.8,8.1,2.7,19.3,2.1,23.4
			c0,0,0,0,0,0.1l0,0c-0.7,4.7-2.9,16-9.6,16.4l0,0c-0.1,0-9,0.5-22.7,1.3c4.5-1.2,8.5-4.2,11.3-8l17.7-1.1c0.2,0,0.4-0.2,0.3-0.4
			c0-0.2-0.2-0.3-0.4-0.3c0,0,0,0,0,0l-16.9,0.8c4.6-7,5.6-16.5,0.5-24.2c2.6-0.2,4.8-0.4,6.5-0.5c2.4-0.2,3.7-0.3,3.7-0.3
			s-1.4,0-3.8,0c-0.5,0-1.1,0-1.7,0c-0.4,0-0.7,0-1.1,0c-0.2,0-0.4,0-0.6,0c-1.1,0-2.4,0-3.7,0c-3.4-4.4-8.2-5.4-13.4-5.4
			c-2.7,0-5.6,0.3-8.4,0.5c-1.7,0.1-3.3,0.2-5,0.3l6.5-4.4C519.8,1622.6,533,1621.8,540.1,1621.4z" clip-rule="evenodd"/><path fill="#71aeec" fill-rule="evenodd" d="M292.3,1592.5l-0.2-3.2l193.7-8.8l59.5,36.5l0.2,4.2c0,0-193,11.2-193.7,10.7c-9.4-6.6-45.4-29.4-54.1-35.5
			C296,1595,294.1,1593.8,292.3,1592.5z" clip-rule="evenodd"/><polygon fill="#86bdf4" fill-rule="evenodd" points="292.1 1589.3 485.6 1576.2 545.3 1616.9 351.8 1627.7" clip-rule="evenodd"/><polygon fill="#e7e4de" fill-rule="evenodd" points="346.3 1588.5 463.7 1581.9 477.8 1591.8 362.2 1598.3" clip-rule="evenodd"/><polygon fill="#619fdf" fill-rule="evenodd" points="470.8 1584.4 467.4 1630.3 490.8 1632 547.9 1593.7 548.1 1590.1" clip-rule="evenodd"/><polygon fill="#71aeec" fill-rule="evenodd" points="488 1629.6 490.8 1632 547.9 1593.7 548.1 1590.1" clip-rule="evenodd"/><path fill="#fff" fill-rule="evenodd" d="M542.9,1586.7c0,1.3,0.1,2.7,0.2,4c0,0-47.4,29.2-56,36.3c0,0-8.2-14-0.5-38.3c0,0,55.2-36,60-38.5
			c0,0-1.3,5.1-2.4,13c-0.1,0.4-0.1,0.8-0.2,1.2c-0.8,6.1-1.4,13.7-1.1,21.6C542.9,1586.2,542.9,1586.5,542.9,1586.7z" clip-rule="evenodd"/><path fill="#dfe6f4" fill-rule="evenodd" d="M546.6,1550.1c0,0,0,0.2-0.1,0.5c-0.2,0.6-0.4,1.8-0.8,3.4c-1.4,1.3-2.9,2.5-4.6,3.8
			c0.2-0.9,0.3-1.7,0.4-2.3c0.1-0.6,0.1-1.3,0.2-2.1c1-0.7,2-1.3,3.1-2C545.3,1551,545.9,1550.5,546.6,1550.1
			C546.5,1550.1,546.6,1550.1,546.6,1550.1L546.6,1550.1z M521.6,1570.8c-4.1,2.4-8.2,4.8-12,7.1c-10.5,6.3-20.3,13.2-21.3,26.5
			c-0.4,5.1,0.9,9.4,4.1,11.7c0,0-0.1,0-0.1,0.1c-2.1,1.4-3.5,2.3-3.5,2.3s1.5-0.8,3.7-2c0.1-0.1,0.2-0.1,0.3-0.2
			c1.4,0.8,3,1.3,5.1,1.3c0.5,0,1.1,0,1.7-0.1c0.6-0.1,1.1-0.2,1.6-0.3c-5.8,3.8-10.7,7.1-13.3,9.1c-4.1-10-4.1-24.4,0-35.1
			c2.5-4.5,6.9-7.5,7.6-8c6.8-4.6,12.2-8,18.3-12.1C516.6,1571.1,519.2,1570.9,521.6,1570.8z" clip-rule="evenodd"/><path fill="#8ab9e8" fill-rule="evenodd" d="M550,1547.8l0.2-3l-182.6-9.4l-57,37.4c0,0,177,18.9,177.2,18.6c2.5-4.6,6.9-7.6,7.6-8
			c9-6,15.6-10.2,24.6-16.2c8.3-5.6,16.5-10.2,24.7-15.7C546.5,1550.2,548.2,1549,550,1547.8z" clip-rule="evenodd"/><path fill="#86bdf4" fill-rule="evenodd" d="M494.7,1580.9c-11.9,10.3-13.1,38.6-3.8,51.1c0,0-179-13.1-179.4-13.2c-6.6-0.5-8.6-12.3-9.1-17.1
			c-0.8-7.2,0.2-34.9,12.9-33.9L494.7,1580.9z" clip-rule="evenodd"/><path fill="#dbcf93" fill-rule="evenodd" d="M487.8,1591.3c-4.1,10.7-4.1,25.1,0,35.1l0,0C483.7,1616.4,483.7,1602,487.8,1591.3
			C487.8,1591.3,487.8,1591.3,487.8,1591.3C487.8,1591.3,487.8,1591.3,487.8,1591.3z" clip-rule="evenodd"/><path fill="#dbd09a" fill-rule="evenodd" d="M302.3,1600.4C302.3,1600.4,302.3,1600.4,302.3,1600.4S302.3,1600.4,302.3,1600.4L302.3,1600.4z
			 M302.3,1600.5C302.3,1600.5,302.3,1600.5,302.3,1600.5C302.3,1600.5,302.3,1600.5,302.3,1600.5L302.3,1600.5z M302.3,1600.6
			C302.3,1600.6,302.3,1600.6,302.3,1600.6C302.3,1600.6,302.3,1600.6,302.3,1600.6L302.3,1600.6z M302.3,1600.7
			C302.3,1600.7,302.3,1600.7,302.3,1600.7C302.3,1600.7,302.3,1600.7,302.3,1600.7L302.3,1600.7z M302.3,1600.8
			c0,0.3,0,0.6,0.1,0.8C302.3,1601.3,302.3,1601.1,302.3,1600.8L302.3,1600.8z M302.4,1601.6
			C302.4,1601.6,302.4,1601.7,302.4,1601.6C302.4,1601.7,302.4,1601.6,302.4,1601.6z" clip-rule="evenodd"/><path fill="#619fdf" fill-rule="evenodd" d="M302.8,1587.1c0.5,3.3,0.7,6.6,1.6,9.8c1,3.5,2.6,6.7,4.8,9.5c5.5,7.1,15.5,8,23.8,9
			c25.2,3.1,47.9,3.7,73.2,5.6c12.7,0.9,24.7,1.4,36.8,2.7c2,0.2,5.9,0.4,10.4,0.4c8.8,0,19.6-0.5,21.9-2.1c2.1-1.4,2.6-4.6,3-6.9
			c0.8-4.5,1.3-8.8,2.9-13.1c1.7-4.5,4.2-8.6,7.3-12.3c-0.2,0.5-0.5,1.1-0.7,1.6c-4.1,10.7-4.1,25.1,0,35.1c0,0,0,0,0,0
			c0.4,0.9,0.8,1.7,1.2,2.5c0.4,0.8,0.9,1.5,1.3,2.2c0,0,0,0,0,0c0,0,0.1,0.1,0.1,0.1c0,0,0,0,0,0c0.1,0.1,0.1,0.2,0.2,0.2
			c0,0,0,0,0,0c0,0,0,0.1,0.1,0.1c0,0,0,0,0,0.1c0,0,0,0,0.1,0.1c0,0,0,0,0.1,0.1c0,0,0,0,0,0.1c0,0,0.1,0.1,0.1,0.1l0,0
			c0,0-179-13.1-179.4-13.2c-6.6-0.5-8.6-12.3-9.1-17.1l0,0c0,0,0-0.1,0-0.1c0,0,0,0,0,0c0-0.2-0.1-0.5-0.1-0.8c0,0,0,0,0,0
			c0,0,0-0.1,0-0.1c0,0,0,0,0,0c0,0,0,0,0-0.1c0,0,0,0,0,0c0,0,0,0,0-0.1c0,0,0,0,0-0.1c0,0,0,0,0,0
			C302.1,1597.4,302.1,1592.3,302.8,1587.1z" clip-rule="evenodd"/><path fill="#4f8dcb" fill-rule="evenodd" d="M343.4,1569.8l-5.9-0.4c-3.6,6.8-5.7,14.6-6.3,22.2c-0.6,9-0.5,19.8,2.5,28.9l5.8,0.4
			C335.4,1606.3,334.8,1584,343.4,1569.8z" clip-rule="evenodd"/><path fill="#4f8dcb" fill-rule="evenodd" d="M354.5,1570.6l-5.9-0.4c-3.6,6.8-5.7,14.6-6.3,22.2c-0.6,9-0.5,19.8,2.5,28.9l5.8,0.4
			C346.5,1607.1,345.8,1584.9,354.5,1570.6z" clip-rule="evenodd"/><path fill="#4f8dcb" fill-rule="evenodd" d="M365.5,1571.4l-5.9-0.4c-3.6,6.8-5.7,14.6-6.3,22.2c-0.6,9-0.5,19.8,2.5,28.9l5.8,0.4
			C357.6,1607.9,356.9,1585.7,365.5,1571.4z" clip-rule="evenodd"/><path fill="#4f8dcb" fill-rule="evenodd" d="M460.8,1578.4l-30.7-2.3c-3.6,6.8-5.6,14.5-6.3,22.2c-0.8,9-1,20,2.5,28.9l30.6,2.2
			C452.8,1614.9,452.2,1592.7,460.8,1578.4z" clip-rule="evenodd"/><polygon fill="#619fdf" fill-rule="evenodd" points="550.2 1544.8 367.9 1531.4 310.9 1568.8 493.2 1582.2" clip-rule="evenodd"/><polygon fill="#8ab9e8" fill-rule="evenodd" points="406.6 1541.3 378 1539.2 340.2 1563.9 368.8 1566" clip-rule="evenodd"/><path fill="#71aeec" fill-rule="evenodd" d="M379.3,1529.4c6.7,11.7,6.2,36.4,1.5,49.2c0,0,152.2-8.4,152.6-8.4c4.2-0.2,7.6-9.8,8.1-14.7
			c0.8-7.2,0.1-35-10.9-34.4L379.3,1529.4z" clip-rule="evenodd"/><path fill="#4f8dcb" fill-rule="evenodd" d="M532.1,1524.6c0,0,5.4,3.8,5.9,21.4c0.3,8.5-0.5,15.4-4.8,19.7c-0.5,0.5,0.2,3.9,0.2,4.5l-167.7,9.2
			l-58.8-41.3l-0.1-3.4L532.1,1524.6z" clip-rule="evenodd"/><polygon fill="#71aeec" fill-rule="evenodd" points="306.7 1534.7 365.4 1575.2 533.2 1565.6 533.4 1570.2 365.7 1579.4 306.9 1538.1" clip-rule="evenodd"/><path fill="#fff" fill-rule="evenodd" d="M316.2,1533.7c-0.1,1.2-0.2,2.5-0.3,3.7c0,0,43.5,28,51.4,34.6c0,0,6.1-17.7,0.4-38.8
			c0,0-49.8-31.2-54.3-33.6c0,0,1.2,4.8,2,12.1c0,0.4,0.1,0.8,0.1,1.2c0.6,5.7,1.1,12.7,0.7,20.1
			C316.2,1533.2,316.2,1533.4,316.2,1533.7z" clip-rule="evenodd"/><path fill="#fff" fill-rule="evenodd" d="M369.3,1560.6c-0.4,4.3-1,8.3-2,11.5c0,0,154.6-8.5,155-8.5c5.8-0.3,7.8-10.3,8.4-14.3
			c0.9-6.1,0.5-29.4-10.8-28.8l-155,8.5c1.4,2.4,2.4,5.4,3.2,8.9c0.2,0.8,0.4,1.7,0.5,2.6c1,5.7,1.2,12.2,0.8,18.3
			C369.4,1559.3,369.4,1559.9,369.3,1560.6z" clip-rule="evenodd"/><path fill="#ebeadc" fill-rule="evenodd" d="M520.4,1520.4c0,0,0.1,0,0.1,0C520.5,1520.4,520.4,1520.4,520.4,1520.4c-0.1,0-0.3,0-0.4,0l-155,8.5l0,0
			l107.5-5.9l47.5-2.6C520.1,1520.4,520.2,1520.4,520.4,1520.4L520.4,1520.4z M523.7,1521.2L523.7,1521.2c0.1,0,0.2,0.1,0.2,0.1
			C523.8,1521.3,523.7,1521.2,523.7,1521.2z" clip-rule="evenodd"/><path fill="#dfe6f4" fill-rule="evenodd" d="M520.4,1520.4c0,0,0.1,0,0.1,0c0.1,0,0.3,0,0.4,0l0.3,0c0.2,0,0.4,0.1,0.6,0.1l0.3,0.1
			c0.2,0,0.4,0.1,0.6,0.2l0.3,0.1c0.2,0.1,0.4,0.2,0.6,0.3l0.1,0.1c0.1,0,0.1,0.1,0.2,0.1c0.2,0.1,0.3,0.2,0.5,0.3l0.2,0.2
			c0.1,0.1,0.3,0.2,0.4,0.4l0.3,0.2l0.4,0.4l0.2,0.3c0.1,0.2,0.3,0.3,0.4,0.5l0.2,0.3c0.2,0.2,0.3,0.5,0.5,0.7l0.2,0.4
			c0.1,0.2,0.2,0.3,0.3,0.5c0.1,0.1,0.2,0.3,0.2,0.4c0.1,0.1,0.2,0.3,0.2,0.5c0.1,0.2,0.1,0.3,0.2,0.5c0.1,0.2,0.1,0.3,0.2,0.5
			c0.1,0.2,0.1,0.3,0.2,0.5c0.1,0.3,0.2,0.6,0.3,0.9c0.8,2.3,1.3,4.8,1.6,7.3c0.7,5.4,0.6,10.7,0.2,13.2l0,0
			c-0.6,4.1-2.6,14-8.4,14.3l0,0c0,0-0.1,0-0.4,0h0c0,0-0.1,0-0.1,0h0c-1.9,0.1-9,0.5-19.4,1.1c4-1.1,7.4-3.6,9.9-7l15.5-1
			c0.2,0,0.3-0.2,0.3-0.3c0-0.2-0.2-0.3-0.3-0.3c0,0,0,0,0,0l-14.8,0.7c4-6.1,5-14.4,0.4-21.2c2.3-0.2,4.2-0.3,5.7-0.4
			c2.1-0.2,3.3-0.3,3.3-0.3s-1.2,0-3.3,0c-0.4,0-0.9,0-1.4,0c-0.4,0-0.7,0-1.1,0c-0.5,0-1,0-1.6,0c-0.7,0-1.4,0-2.1,0
			c-3-3.9-7.2-4.8-11.8-4.8c-2.4,0-4.9,0.2-7.3,0.4c-9.9,0.6-19.7,0.9-29.6,1.4c-5.6,0.3-11.3,0.5-16.9,0.8
			c-14.1,0.7-28.2,1.4-42.2,2c-2.7,0.1-5.3,0.3-8,0.4c-6.4,0.2-11.5,0.8-15.5,1.9c-2.3,0.1-4.5,0.3-6.4,0.4
			c-2.7,0.2-4.9,0.3-6.4,0.4c-0.3-1.5-0.6-3-1-4.5c0,0-0.4-0.2-1.1-0.7c-0.5-1.3-1.1-2.6-1.7-3.7l155-8.5
			C520.1,1520.4,520.2,1520.4,520.4,1520.4L520.4,1520.4z M375.2,1539.7c-2.4,0.2-4.5,0.4-6,0.6c0.2,1.5,0.4,3,0.6,4.4
			C371.3,1542.8,373,1541.1,375.2,1539.7z" clip-rule="evenodd"/><path fill="#71aeec" fill-rule="evenodd" d="M310.4,1499.4l-0.2-2.8l169.5-7.6l52.1,32l0.2,3.7c0,0-168.9,9.7-169.5,9.2c-8.2-5.8-39.7-25.8-47.3-31.1
			C313.6,1501.7,312,1500.5,310.4,1499.4z" clip-rule="evenodd"/><polygon fill="#619fdf" fill-rule="evenodd" points="310.2 1496.6 479.6 1485.3 531.9 1521 362.4 1530.3" clip-rule="evenodd"/></g><g><path fill="#8ab9e8" fill-rule="evenodd" d="M523.5,1498.1c0,8.7-6.9,15.7-15.4,15.7H330.5c-8.5,0-15.4-7-15.4-15.7v-249c0-8.7,7-15.7,15.5-15.7h177.5
			c8.5,0,15.4,7.1,15.4,15.7V1498.1z" clip-rule="evenodd"/><path fill="#86bdf4" fill-rule="evenodd" d="M523.5,1496.1c0,8.7-6.9,15.7-15.4,15.7H330.5c-8.5,0-15.4-7-15.4-15.7v-249c0-8.7,7-15.7,15.5-15.7h177.5
			c8.5,0,15.4,7.1,15.4,15.7V1496.1z" clip-rule="evenodd"/><path fill="#fff" fill-rule="evenodd" d="M507.8,1307.5c0,4.2-3.4,7.6-7.6,7.6l-161.8,0c-4.2,0-7.6-3.4-7.5-7.6l0-47.9c0-4.2,3.4-7.6,7.6-7.6l161.8,0
			c4.2,0,7.6,3.4,7.6,7.6L507.8,1307.5z" clip-rule="evenodd"/><path fill="#4f8dcb" fill-rule="evenodd" d="M368.1,1398.7c0,2.2-1.8,3.9-4.1,3.9l-24,0c-2.3,0-4.1-1.7-4.1-3.9l0-22.1c0-2.2,1.8-3.9,4.1-3.9H364
			c2.3,0,4.1,1.7,4.1,3.9V1398.7z" clip-rule="evenodd"/><path fill="#4f8dcb" fill-rule="evenodd" d="M368.1,1443.5c0,2.2-1.8,3.9-4.1,3.9l-24.1,0c-2.3,0-4.1-1.7-4.1-3.9l0-22.1c0-2.2,1.8-3.9,4.1-3.9l24.1,0
			c2.3,0,4.1,1.7,4.1,3.9L368.1,1443.5z" clip-rule="evenodd"/><path fill="#4f8dcb" fill-rule="evenodd" d="M368.1,1488.3c0,2.2-1.8,3.9-4.1,3.9l-24,0c-2.3,0-4.1-1.7-4.1-3.9l0-22.1c0-2.2,1.8-3.9,4.1-3.9l24.1,0
			c2.3,0,4.1,1.7,4.1,3.9L368.1,1488.3z" clip-rule="evenodd"/><path fill="#4f8dcb" fill-rule="evenodd" d="M413,1398.7c0,2.2-1.8,3.9-4.1,3.9h-24c-2.3,0-4.1-1.7-4.1-3.9l0-22.1c0-2.2,1.8-3.9,4.1-3.9l24,0
			c2.3,0,4.1,1.7,4.1,3.9L413,1398.7z" clip-rule="evenodd"/><path fill="#4f8dcb" fill-rule="evenodd" d="M413,1443.5c0,2.2-1.8,3.9-4.1,3.9l-24.1,0c-2.3,0-4.1-1.7-4.1-3.9l0-22.1c0-2.2,1.8-3.9,4.1-3.9l24,0
			c2.3,0,4.1,1.7,4.1,3.9V1443.5z" clip-rule="evenodd"/><path fill="#4f8dcb" fill-rule="evenodd" d="M413,1488.3c0,2.2-1.8,3.9-4.1,3.9l-24.1,0c-2.3,0-4.1-1.7-4.1-3.9l0-22.1c0-2.2,1.8-3.9,4.1-3.9l24,0
			c2.3,0,4.1,1.7,4.1,3.9L413,1488.3z" clip-rule="evenodd"/><path fill="#4f8dcb" fill-rule="evenodd" d="M457.9,1398.7c0,2.2-1.8,3.9-4.1,3.9l-24.1,0c-2.3,0-4.1-1.8-4.1-3.9l0-22.1c0-2.2,1.8-3.9,4.1-3.9l24,0
			c2.3,0,4.1,1.7,4.1,3.9L457.9,1398.7z" clip-rule="evenodd"/><path fill="#4f8dcb" fill-rule="evenodd" d="M501.6,1399.3c0,2.2-1.8,3.9-4.1,3.9h-24c-2.3,0-4.1-1.8-4.1-3.9l0-22.1c0-2.2,1.8-3.9,4.1-3.9l24.1,0
			c2.3,0,4.1,1.8,4.1,3.9L501.6,1399.3z" clip-rule="evenodd"/><path fill="#4f8dcb" fill-rule="evenodd" d="M457.8,1443.5c0,2.2-1.8,3.9-4.1,3.9l-24,0c-2.3,0-4.1-1.8-4.1-3.9l0-22.1c0-2.1,1.8-3.9,4.1-3.9h24.1
			c2.3,0,4.1,1.8,4.1,3.9V1443.5z" clip-rule="evenodd"/><path fill="#4f8dcb" fill-rule="evenodd" d="M457.8,1488.3c0,2.2-1.8,3.9-4.1,3.9l-24.1,0c-2.3,0-4.1-1.7-4.1-3.9l0-22.1c0-2.2,1.8-3.9,4.1-3.9h24
			c2.3,0,4.1,1.8,4.1,3.9L457.8,1488.3z" clip-rule="evenodd"/><path fill="#deecf9" fill-rule="evenodd" d="M369.2,1355.8c0,1.9-1.6,3.4-3.5,3.4l-27.4,0c-2,0-3.5-1.5-3.5-3.4l0-18.9c0-1.9,1.6-3.4,3.5-3.4l27.4,0
			c2,0,3.5,1.5,3.5,3.4V1355.8z" clip-rule="evenodd"/><path fill="#deecf9" fill-rule="evenodd" d="M414.1,1355.8c0,1.9-1.6,3.4-3.5,3.4h-27.4c-2,0-3.5-1.5-3.5-3.4V1337c0-1.9,1.6-3.4,3.5-3.4h27.4
			c2,0,3.5,1.5,3.5,3.4L414.1,1355.8z" clip-rule="evenodd"/><path fill="#deecf9" fill-rule="evenodd" d="M459,1355.8c0,1.9-1.6,3.4-3.5,3.4l-27.4,0c-2,0-3.6-1.5-3.6-3.4l0-18.9c0-1.9,1.6-3.4,3.5-3.4h27.4
			c2,0,3.5,1.5,3.5,3.4L459,1355.8z" clip-rule="evenodd"/><path fill="#deecf9" fill-rule="evenodd" d="M503.9,1355.9c0,1.9-1.6,3.4-3.5,3.4l-27.4,0c-2,0-3.5-1.5-3.5-3.4l0-18.9c0-1.9,1.6-3.4,3.5-3.4l27.4,0
			c2,0,3.5,1.5,3.5,3.4L503.9,1355.9z" clip-rule="evenodd"/><path fill="#deecf9" fill-rule="evenodd" d="M503.8,1481.4c0,5.3-1.6,9.6-3.5,9.6l-27.4,0c-2,0-3.5-4.3-3.5-9.6l0-53.5c0-5.3,1.6-9.6,3.5-9.6l27.4,0
			c2,0,3.5,4.3,3.5,9.6L503.8,1481.4z" clip-rule="evenodd"/><polygon fill="#4f8dcb" fill-rule="evenodd" points="443.7 1263.6 441.8 1261.3 443.7 1258.9 460.8 1258.9 462.8 1261.2 460.8 1263.6" clip-rule="evenodd"/><polygon fill="#4f8dcb" fill-rule="evenodd" points="442.5 1286 440.6 1283.6 442.5 1281.3 459.6 1281.3 461.6 1283.6 459.6 1286" clip-rule="evenodd"/><polygon fill="#4f8dcb" fill-rule="evenodd" points="441.5 1309 438.7 1306.6 441.5 1304.3 458.5 1304.3 460.5 1306.6 458.6 1309" clip-rule="evenodd"/><polygon fill="#4f8dcb" fill-rule="evenodd" points="477 1263.3 475.1 1260.9 477 1258.6 494.1 1258.6 496.1 1260.9 494.1 1263.3" clip-rule="evenodd"/><polygon fill="#4f8dcb" fill-rule="evenodd" points="474.8 1286 472.9 1283.6 474.8 1281.3 491.9 1281.3 493.9 1283.6 491.9 1286" clip-rule="evenodd"/><polygon fill="#4f8dcb" fill-rule="evenodd" points="473.2 1308.7 471.3 1306.3 473.2 1304 490.3 1304 492.3 1306.3 490.3 1308.6" clip-rule="evenodd"/><polygon fill="#4f8dcb" fill-rule="evenodd" points="428.7 1303.9 426.2 1305.7 424.1 1303.5 425.5 1286.2 428 1284.4 430.1 1286.6" clip-rule="evenodd"/><polygon fill="#4f8dcb" fill-rule="evenodd" points="497.3 1281.3 494.8 1283 492.7 1280.9 494.1 1263.6 496.5 1261.8 498.7 1264" clip-rule="evenodd"/><polygon fill="#4f8dcb" fill-rule="evenodd" points="464.7 1281.3 462.3 1283 460.1 1280.9 461.5 1263.6 464 1261.8 466.1 1264" clip-rule="evenodd"/><polygon fill="#4f8dcb" fill-rule="evenodd" points="430.5 1281.3 428 1283 425.9 1280.9 427.3 1263.6 429.8 1261.8 431.9 1264" clip-rule="evenodd"/><polygon fill="#4f8dcb" fill-rule="evenodd" points="495.5 1303.9 493 1305.7 490.9 1303.5 492.3 1286.2 494.7 1284.4 496.9 1286.6" clip-rule="evenodd"/><polygon fill="#4f8dcb" fill-rule="evenodd" points="440.3 1303.9 437.9 1305.7 435.7 1303.5 437.2 1286.2 439.6 1284.4 441.8 1286.6" clip-rule="evenodd"/></g><g><path fill="#f47a44" fill-rule="evenodd" d="M1288.8,824.7h15.2v-11.4c0-12.5,10.2-22.7,22.7-22.7h100.8c12.5,0,22.7,10.2,22.7,22.7v10.5h15.2v-10.5
			c0-20.9-17-37.9-37.9-37.9h-100.8c-20.9,0-37.9,17-37.9,37.9V824.7z" clip-rule="evenodd"/><path fill="#fb9674" fill-rule="evenodd" d="M1439.3,840.7c0,2.8,2.3,5.1,5,5.1h26.1c2.8,0,5.1-2.3,5.1-5.1v-16.8c0-2.8-2.3-5-5.1-5h-26.1
			c-2.8,0-5,2.2-5,5V840.7z" clip-rule="evenodd"/><path fill="#fb9674" fill-rule="evenodd" d="M1277.6,840.7c0,2.8,2.3,5.1,5,5.1h26.1c2.8,0,5.1-2.3,5.1-5.1v-16.8c0-2.8-2.3-5-5.1-5h-26.1
			c-2.8,0-5,2.2-5,5V840.7z" clip-rule="evenodd"/><path fill="#fb9674" fill-rule="evenodd" d="M1152.2,1126.6c0,16.8,13.6,30.3,30.3,30.3H1569c16.8,0,30.3-13.6,30.3-30.3V853.8c0-8.4-6.8-15.2-15.2-15.2
			h-416.8c-8.4,0-15.2,6.8-15.2,15.2V1126.6z" clip-rule="evenodd"/><path fill="#f47a44" fill-rule="evenodd" d="M1168.1,853.8h416.8c8.4,0,15.1,6.8,15.1,15.1v90.9c0,33.5-27.2,60.6-60.6,60.6h-140.9v15.5
			c0,12.6-10.2,22.7-22.7,22.7c-12.6,0-22.7-10.2-22.7-22.7v-15.5h-139.4c-33.5,0-60.6-27.2-60.6-60.6V869
			C1153,860.6,1159.8,853.8,1168.1,853.8z" clip-rule="evenodd"/><path fill="#fabea7" fill-rule="evenodd" d="M1153,944.8c0,33.5,27.2,60.6,60.6,60.6h325.8c33.5,0,60.6-27.2,60.6-60.6v-90.9c0-8.4-6.8-15.2-15.1-15.2
			h-416.8c-8.4,0-15.2,6.8-15.2,15.2V944.8z" clip-rule="evenodd"/><path fill="#fb9674" fill-rule="evenodd" d="M1353,1020.9c0,12.6,10.2,22.7,22.7,22.7c12.6,0,22.7-10.2,22.7-22.7v-36.2H1353V1020.9z" clip-rule="evenodd"/><path fill="#ffe1db" fill-rule="evenodd" d="M1358.1,1019.4c0,9.8,7.9,17.7,17.7,17.7s17.7-7.9,17.7-17.7v-28.2h-35.4V1019.4z" clip-rule="evenodd"/><rect width="39" height="6.1" x="1357.4" y="1005.5" fill="#fb9674" fill-rule="evenodd" clip-rule="evenodd"/></g><g><path fill="#619fdf" fill-rule="evenodd" d="M1500.3,864.1c0-26.5,21.5-48,48-48c26.5,0,48,21.5,48,48c0,26.5-21.5,48-48,48
			C1521.8,912.1,1500.3,890.6,1500.3,864.1z" clip-rule="evenodd"/><path fill="#a3cffb" fill-rule="evenodd" d="M1507.6,864.1c0-22.5,18.2-40.7,40.7-40.7c22.5,0,40.7,18.2,40.7,40.7s-18.2,40.7-40.7,40.7
			C1525.8,904.8,1507.6,886.6,1507.6,864.1z" clip-rule="evenodd"/><path fill="#8ab9e8" fill-rule="evenodd" d="M1569.6,829.3c4.1,6.3,6.4,13.9,6.4,21.9c0,22.5-18.2,40.7-40.7,40.7c-7.8,0-15.1-2.2-21.3-6
			c7.2,11.3,19.9,18.8,34.3,18.8c22.5,0,40.7-18.2,40.7-40.7C1589.1,849.4,1581.3,836.5,1569.6,829.3z" clip-rule="evenodd"/><path fill="#d1e4f6" fill-rule="evenodd" d="M1514.7,867.8c0-19.9,16.1-36,36-36c11.6,0,21.9,5.5,28.5,14c-6.2-10.8-17.8-18-31.2-18
			c-19.9,0-36,16.1-36,36c0,8.3,2.8,15.9,7.5,21.9C1516.5,880.5,1514.7,874.3,1514.7,867.8z" clip-rule="evenodd"/><path fill="#fff" fill-rule="evenodd" d="M1551.7,837.8v5.2c2.1,0.3,3.8,1,5.1,2.1c1.3,1,2.6,2.6,3.8,4.8l-5.2,2.9c-1.6-2.8-3.6-4.2-6.1-4.2
			c-1.6,0-2.8,0.5-3.9,1.4c-1,0.9-1.5,2.1-1.5,3.4c0,1.3,0.4,2.3,1.2,3.1c0.8,0.8,2.5,1.8,4.9,2.9c2.1,1,3.9,1.9,5.3,2.7
			c1.4,0.9,2.4,1.7,3.2,2.5c2,2.2,3,4.8,3,7.8c0,3-0.9,5.6-2.7,7.9c-1.8,2.3-4.2,3.8-7.1,4.6v5.5h-4.6v-5.3
			c-3.5-0.6-6.1-1.8-7.9-3.6c-1.8-1.8-3.2-4.6-4-8.4l5.8-1.2c0.8,2.7,1.8,4.6,2.9,5.7c1.2,1.1,2.8,1.6,4.8,1.6
			c1.9,0,3.6-0.6,4.9-1.9c1.3-1.2,1.9-2.8,1.9-4.8c0-1.7-0.5-3.2-1.6-4.2c-0.5-0.5-1.4-1.1-2.4-1.7c-1.1-0.6-2.4-1.3-4.1-2.1
			c-3.4-1.5-5.7-2.9-6.8-4.2c-1.7-1.9-2.6-4.2-2.6-6.9c0-1.3,0.2-2.5,0.6-3.5c0.4-1.1,1-2.1,1.8-3c0.8-0.9,1.7-1.7,2.8-2.3
			c1.1-0.7,2.4-1.2,3.8-1.5v-5.2H1551.7z" clip-rule="evenodd"/></g><g><circle cx="1466.6" cy="689.4" r="85.8" fill="#619fdf" fill-rule="evenodd" clip-rule="evenodd" transform="rotate(-76.714 1466.68 689.45)"/><circle cx="1466.6" cy="689.4" r="72.8" fill="#a3cffb" fill-rule="evenodd" clip-rule="evenodd" transform="rotate(-76.714 1466.68 689.45)"/><path fill="#8ab9e8" fill-rule="evenodd" d="M1504.6,627.3c7.3,11.3,11.5,24.8,11.5,39.2c0,40.2-32.6,72.8-72.8,72.8c-14,0-27-3.9-38.1-10.8
			c12.9,20.2,35.6,33.6,61.4,33.6c40.2,0,72.8-32.6,72.8-72.8C1539.4,663.1,1525.5,640.1,1504.6,627.3z" clip-rule="evenodd"/><path fill="#d1e4f6" fill-rule="evenodd" d="M1406.5,696.1c0-35.5,28.8-64.3,64.3-64.3c20.7,0,39.2,9.8,50.9,25.1c-11.1-19.3-31.9-32.2-55.7-32.2
			c-35.5,0-64.3,28.8-64.3,64.3c0,14.7,5,28.3,13.3,39.2C1409.6,718.7,1406.5,707.8,1406.5,696.1z" clip-rule="evenodd"/><path fill="#fff" fill-rule="evenodd" d="M1472.6,642.5v9.3c3.7,0.6,6.8,1.8,9.1,3.7c2.4,1.9,4.6,4.7,6.8,8.6l-9.2,5.2c-2.8-5-6.4-7.6-10.9-7.6
			c-2.8,0-5.1,0.8-6.9,2.5c-1.8,1.6-2.7,3.7-2.7,6.2c0,2.2,0.7,4.1,2.2,5.6c1.4,1.4,4.4,3.2,8.8,5.2c3.8,1.7,7,3.4,9.5,4.9
			c2.5,1.5,4.4,3,5.6,4.4c3.6,3.8,5.3,8.5,5.3,14c0,5.4-1.6,10.1-4.8,14.2c-3.2,4.1-7.4,6.8-12.8,8.2v9.8h-8.3v-9.5
			c-6.2-1-10.9-3.1-14.1-6.4c-3.2-3.2-5.6-8.3-7.2-15l10.4-2.2c1.4,4.8,3.2,8.2,5.2,10.3c2.1,2,5,2.9,8.6,2.9c3.5,0,6.4-1.1,8.7-3.4
			c2.3-2.2,3.5-5.1,3.5-8.6c0-3.1-1-5.6-2.9-7.5c-1-0.9-2.4-1.9-4.3-3.1c-1.9-1.1-4.3-2.4-7.3-3.8c-6.1-2.7-10.1-5.3-12.1-7.6
			c-3.1-3.4-4.6-7.6-4.6-12.4c0-2.3,0.4-4.4,1.1-6.3c0.7-2,1.8-3.7,3.1-5.3c1.4-1.6,3.1-3,5.1-4.1c2-1.2,4.3-2.1,6.9-2.7v-9.3
			H1472.6z" clip-rule="evenodd"/></g><g><path fill="#619fdf" fill-rule="evenodd" d="M1180.9,543.6c0-64,51.9-115.9,115.9-115.9c64,0,115.9,51.9,115.9,115.9c0,64-51.9,115.9-115.9,115.9
			C1232.7,659.5,1180.9,607.6,1180.9,543.6z" clip-rule="evenodd"/><path fill="#a3cffb" fill-rule="evenodd" d="M1198.4,543.6c0-54.3,44-98.3,98.3-98.3c54.3,0,98.3,44,98.3,98.3c0,54.3-44,98.3-98.3,98.3
			C1242.4,641.9,1198.4,597.9,1198.4,543.6z" clip-rule="evenodd"/><path fill="#8ab9e8" fill-rule="evenodd" d="M1348.2,459.7c9.8,15.3,15.5,33.5,15.5,53c0,54.3-44,98.3-98.3,98.3c-18.9,0-36.5-5.3-51.4-14.5
			c17.5,27.3,48.1,45.4,82.9,45.4c54.3,0,98.3-44,98.3-98.3C1395.1,508,1376.3,477,1348.2,459.7z" clip-rule="evenodd"/><path fill="#d1e4f6" fill-rule="evenodd" d="M1215.6,552.6c0-47.9,38.9-86.8,86.8-86.8c28,0,52.9,13.3,68.8,33.9c-15-26-43.1-43.5-75.3-43.5
			c-47.9,0-86.8,38.9-86.8,86.8c0,19.9,6.7,38.3,18,52.9C1219.8,583.1,1215.6,568.4,1215.6,552.6z" clip-rule="evenodd"/><path fill="#fff" fill-rule="evenodd" d="M1304.9,480.1v12.5c5,0.8,9.1,2.5,12.3,5c3.2,2.5,6.2,6.4,9.1,11.6l-12.5,7c-3.8-6.8-8.7-10.2-14.7-10.2
			c-3.8,0-6.9,1.1-9.3,3.3c-2.5,2.2-3.7,5-3.7,8.3c0,3,1,5.5,3,7.5c2,2,5.9,4.3,11.9,7c5.2,2.3,9.4,4.5,12.8,6.6
			c3.4,2.1,5.9,4.1,7.6,6c4.8,5.2,7.2,11.5,7.2,18.9c0,7.2-2.2,13.6-6.5,19.2c-4.3,5.5-10.1,9.2-17.3,11.1v13.2h-11.2v-12.8
			c-8.4-1.4-14.7-4.2-19.1-8.6c-4.4-4.4-7.6-11.2-9.7-20.3l14.1-2.9c1.9,6.5,4.3,11.1,7,13.9c2.9,2.6,6.8,4,11.6,4
			c4.7,0,8.6-1.5,11.8-4.5c3.1-3,4.7-6.8,4.7-11.6c0-4.2-1.3-7.6-3.9-10.2c-1.3-1.2-3.3-2.6-5.8-4.2c-2.6-1.6-5.9-3.2-9.9-5.1
			c-8.3-3.7-13.7-7.1-16.3-10.2c-4.1-4.6-6.2-10.2-6.2-16.7c0-3.1,0.5-5.9,1.5-8.6c1-2.6,2.4-5,4.3-7.2c1.9-2.2,4.1-4,6.9-5.6
			c2.7-1.6,5.8-2.8,9.3-3.7v-12.5H1304.9z" clip-rule="evenodd"/></g><g><polygon fill="#1e77d0" fill-rule="evenodd" points="1324 1118.4 1380.3 1188.4 1451.3 1064.6 1484.5 1076.5 1390.2 1207.8 1384.2 1218.2 1375.8 1209.7 1304.5 1137.6" clip-rule="evenodd"/><polygon fill="#4f8dcb" fill-rule="evenodd" points="1324.7 1115.8 1381 1185.7 1452 1061.9 1485.2 1073.9 1390.9 1205.1 1384.9 1215.5 1376.5 1207 1305.2 1134.9" clip-rule="evenodd"/></g><path fill="#e9eef7" fill-rule="evenodd" d="M299.9,651.6l-11.2,6.5c-3.8,2.2-5.1,7.1-2.9,10.9l2.5,4.3c2.9,5,1.7,7.3,0.7,8.1c-2.5,2.2-4.8,4.7-7.1,7.1
		c-0.7,0.7-2.9,3.1-8.6-0.2l-3.9-2.3c-3.8-2.2-8.7-0.9-10.9,2.9l-6.5,11.2c-2.2,3.8-0.9,8.7,2.9,10.9l3.9,2.3c5.4,3.1,5.2,4.7,4.5,7
		c-0.9,3.1-1.9,6.2-2.6,9.5c-0.6,2.9-0.3,4.9-7.6,4.9h-4.5c-4.4,0-8,3.6-8,8v13c0,4.4,3.6,8,8,8h4.5c7.3,0,7,2.1,7.6,4.9
		c0.7,3.2,1.7,6.3,2.6,9.5c0.7,2.3,0.8,3.9-4.5,7l-3.9,2.3c-3.8,2.2-5.1,7.1-2.9,10.9l6.5,11.2c2.2,3.8,7.1,5.1,10.9,2.9l3.9-2.3
		c5.7-3.3,7.9-0.9,8.6-0.2c2.3,2.4,4.6,4.8,7.1,7.1c0.9,0.8,2.2,3.1-0.7,8.1l-2.5,4.3c-2.2,3.8-0.9,8.7,2.9,10.9l11.2,6.5
		c3.8,2.2,8.7,0.9,10.9-2.9l2.5-4.3c3-5.1,5.9-4.9,7.1-4.5c3.6,1.1,6.9,1.9,10.6,2.8c1.3,0.4,3.7,1.3,3.7,7.4v4.6c0,4.4,3.6,8,8,8
		h13c4.4,0,8-3.6,8-8v-4.6c0-6.1,2.3-7.1,3.7-7.4c3.7-1,7-1.7,10.6-2.8c1.2-0.4,4.2-0.6,7.1,4.5l2.5,4.3c2.2,3.8,7.1,5.1,10.9,2.9
		l11.2-6.5c3.8-2.2,5.1-7.1,2.9-10.9L410,825c-2.9-5-1.6-7.3-0.7-8.1c2.5-2.2,4.8-4.7,7.1-7.1c0.7-0.7,2.9-3.1,8.6,0.2l3.9,2.3
		c3.8,2.2,8.7,0.9,10.9-2.9l6.5-11.2c2.2-3.8,0.9-8.7-2.9-10.9l-3.9-2.3c-5.4-3.1-5.2-4.7-4.5-7c0.9-3.1,1.9-6.2,2.6-9.5
		c0.6-2.9,0.3-4.9,7.6-4.9h4.5c4.4,0,8-3.6,8-8v-13c0-4.4-3.6-8-8-8h-4.5c-7.3,0-7-2.1-7.6-4.9c-0.7-3.2-1.7-6.3-2.6-9.5
		c-0.7-2.3-0.8-3.9,4.5-7l3.9-2.3c3.8-2.2,5.1-7.1,2.9-10.9l-6.5-11.2c-2.2-3.8-7.1-5.1-10.9-2.9l-3.9,2.3c-5.7,3.3-7.9,0.9-8.6,0.2
		c-2.3-2.4-4.6-4.8-7.1-7.1c-0.9-0.8-2.2-3.1,0.7-8.1l2.5-4.3c2.2-3.8,0.9-8.7-2.9-10.9l-11.2-6.5c-3.8-2.2-8.7-0.9-10.9,2.9
		l-2.5,4.3c-3,5.1-5.9,4.9-7.1,4.5c-3.6-1.1-6.9-1.9-10.6-2.8c-1.4-0.4-3.7-1.3-3.7-7.4v-4.6c0-4.4-3.6-8-8-8h-13c-4.4,0-8,3.6-8,8
		v4.6c0,6.1-2.3,7.1-3.7,7.4c-3.7,1-7,1.7-10.6,2.8c-1.2,0.4-4.2,0.6-7.1-4.5l-2.5-4.3C308.6,650.7,303.7,649.4,299.9,651.6
		L299.9,651.6z M349.1,685.4c35.2,0,63.8,28.5,63.8,63.8c0,35.2-28.5,63.8-63.8,63.8c-35.2,0-63.8-28.5-63.8-63.8
		C285.4,714,313.9,685.4,349.1,685.4z" clip-rule="evenodd"/><path fill="#c2def9" fill-rule="evenodd" d="M359.1,861.8l-14.2,8.3c-4.8,2.8-6.4,9-3.6,13.8l3.1,5.4c3.7,6.4,2.1,9.2,0.9,10.3c-3.2,2.8-6.1,5.9-9,9
		c-0.9,0.9-3.6,4-10.8-0.2l-5-2.9c-4.8-2.8-11-1.1-13.8,3.6l-8.3,14.2c-2.8,4.8-1.1,11,3.6,13.8l4.9,2.8c6.8,3.9,6.6,6,5.7,8.8
		c-1.2,3.9-2.4,7.9-3.3,12c-0.8,3.6-0.4,6.2-9.6,6.2h-5.6c-5.5,0-10.1,4.5-10.1,10.1v16.4c0,5.5,4.5,10.1,10.1,10.1h5.6
		c9.2,0,8.9,2.6,9.6,6.2c0.9,4.1,2.1,8,3.3,12c0.9,2.9,1,4.9-5.7,8.8l-4.9,2.8c-4.8,2.8-6.4,9-3.6,13.8l8.3,14.2
		c2.8,4.8,9,6.4,13.8,3.6l5-2.9c7.2-4.2,10-1.1,10.8-0.2c2.9,3.1,5.9,6.1,9,9c1.1,1,2.8,3.9-0.9,10.3l-3.1,5.4
		c-2.8,4.8-1.1,11,3.6,13.8l14.2,8.3c4.8,2.8,11,1.1,13.8-3.6l3.1-5.4c3.8-6.5,7.4-6.2,9-5.7c4.5,1.4,8.7,2.4,13.4,3.6
		c1.7,0.4,4.6,1.7,4.6,9.4v5.8c0,5.5,4.5,10.1,10.1,10.1h16.4c5.5,0,10.1-4.5,10.1-10.1v-5.8c0-7.7,2.9-8.9,4.6-9.4
		c4.7-1.2,8.9-2.1,13.4-3.6c1.6-0.5,5.3-0.8,9,5.7l3.1,5.4c2.8,4.8,9,6.4,13.8,3.6l14.2-8.3c4.8-2.8,6.4-9,3.6-13.8l-3.1-5.4
		c-3.7-6.4-2.1-9.2-0.9-10.3c3.2-2.8,6.1-5.9,9-9c0.9-0.9,3.6-4,10.8,0.2l5,2.9c4.8,2.8,11,1.1,13.8-3.6l8.3-14.2
		c2.8-4.8,1.1-11-3.6-13.8l-4.9-2.8c-6.8-3.9-6.6-6-5.7-8.8c1.2-3.9,2.4-7.9,3.3-12c0.8-3.6,0.4-6.2,9.6-6.2h5.6
		c5.5,0,10.1-4.5,10.1-10.1v-16.4c0-5.5-4.5-10.1-10.1-10.1h-5.6c-9.2,0-8.9-2.6-9.6-6.2c-0.9-4.1-2.1-8-3.3-12
		c-0.9-2.9-1-4.9,5.7-8.8l4.9-2.8c4.8-2.8,6.4-9,3.6-13.8l-8.3-14.2c-2.8-4.8-9-6.4-13.8-3.6l-5,2.9c-7.2,4.2-10,1.1-10.8,0.2
		c-2.9-3.1-5.9-6.1-9-9c-1.1-1-2.8-3.9,0.9-10.3l3.1-5.4c2.8-4.8,1.1-11-3.6-13.8l-14.2-8.3c-4.8-2.8-11-1.1-13.8,3.6l-3.1,5.4
		c-3.8,6.5-7.5,6.2-9,5.7c-4.5-1.4-8.7-2.4-13.4-3.6c-1.7-0.4-4.6-1.7-4.6-9.4v-5.8c0-5.5-4.5-10.1-10.1-10.1h-16.4
		c-5.5,0-10.1,4.5-10.1,10.1v5.8c0,7.7-2.9,8.9-4.6,9.4c-4.7,1.2-8.9,2.1-13.4,3.6c-1.6,0.5-5.3,0.8-9-5.7l-3.1-5.4
		C370.1,860.7,363.9,859,359.1,861.8L359.1,861.8z M421.3,963.4c12,0,21.7,9.7,21.7,21.7s-9.7,21.7-21.7,21.7
		c-12,0-21.7-9.7-21.7-21.7S409.3,963.4,421.3,963.4L421.3,963.4z M353.3,985.1c0-2.6,2.1-4.6,4.6-4.6s4.6,2.1,4.6,4.6
		c0,16.2,6.6,30.9,17.2,41.5c10.6,10.6,25.3,17.2,41.5,17.2c2.6,0,4.6,2.1,4.6,4.6c0,2.6-2.1,4.6-4.6,4.6
		c-18.8,0-35.8-7.6-48.1-19.9C360.9,1020.9,353.3,1003.9,353.3,985.1L353.3,985.1z M488.4,974.1c0.4,2.5-1.3,4.9-3.8,5.3
		c-2.5,0.4-4.9-1.3-5.3-3.8c-2-12.3-7.8-23.3-16.2-31.8c-8.4-8.5-19.4-14.4-31.7-16.5c-2.5-0.4-4.2-2.8-3.8-5.3
		c0.4-2.5,2.8-4.2,5.3-3.8c14.2,2.5,26.9,9.3,36.7,19.2C479.3,947.1,486.1,959.9,488.4,974.1L488.4,974.1z M421.3,904.5
		c44.5,0,80.6,36.1,80.6,80.6c0,44.5-36.1,80.6-80.6,80.6c-44.5,0-80.6-36.1-80.6-80.6C340.7,940.6,376.8,904.5,421.3,904.5z" clip-rule="evenodd"/><path fill="#c2def9" fill-rule="evenodd" d="M1509.4,1207.8l-14.2,8.3c-4.8,2.8-6.4,9-3.6,13.8l3.1,5.4c3.7,6.4,2.1,9.2,0.9,10.3c-3.2,2.8-6.1,5.9-9,9
		c-0.9,0.9-3.6,4-10.8-0.2l-5-2.9c-4.8-2.8-11-1.1-13.8,3.6l-8.3,14.2c-2.8,4.8-1.1,11,3.6,13.8l4.9,2.8c6.8,3.9,6.6,6,5.7,8.8
		c-1.2,3.9-2.4,7.9-3.3,12c-0.8,3.6-0.4,6.2-9.6,6.2h-5.6c-5.5,0-10.1,4.5-10.1,10.1v16.4c0,5.5,4.5,10.1,10.1,10.1h5.6
		c9.2,0,8.9,2.6,9.6,6.2c0.9,4.1,2.1,8,3.3,12c0.9,2.9,1,4.9-5.7,8.8l-4.9,2.8c-4.8,2.8-6.4,9-3.6,13.8l8.3,14.2
		c2.8,4.8,9,6.4,13.8,3.6l5-2.9c7.2-4.2,10-1.1,10.8-0.2c2.9,3.1,5.9,6.1,9,9c1.1,1,2.8,3.9-0.9,10.3l-3.1,5.4
		c-2.8,4.8-1.1,11,3.6,13.8l14.2,8.3c4.8,2.8,11,1.1,13.8-3.6l3.1-5.4c3.8-6.5,7.4-6.2,9-5.7c4.5,1.4,8.7,2.4,13.4,3.6
		c1.7,0.4,4.6,1.7,4.6,9.4v5.8c0,5.5,4.5,10.1,10.1,10.1h16.4c5.5,0,10.1-4.5,10.1-10.1v-5.8c0-7.7,2.9-8.9,4.6-9.4
		c4.7-1.2,8.9-2.2,13.4-3.6c1.6-0.5,5.3-0.8,9,5.7l3.1,5.4c2.8,4.8,9,6.4,13.8,3.6l14.2-8.3c4.8-2.8,6.4-9,3.6-13.8l-3.1-5.4
		c-3.7-6.4-2.1-9.2-0.9-10.3c3.2-2.8,6.1-5.9,9-9c0.9-0.9,3.6-4,10.8,0.2l5,2.9c4.8,2.8,11,1.1,13.8-3.6l8.3-14.2
		c2.8-4.8,1.1-11-3.6-13.8l-4.9-2.8c-6.8-3.9-6.6-6-5.7-8.8c1.2-3.9,2.4-7.9,3.3-12c0.8-3.6,0.4-6.2,9.6-6.2h5.6
		c5.5,0,10.1-4.5,10.1-10.1v-16.4c0-5.5-4.5-10.1-10.1-10.1h-5.6c-9.2,0-8.9-2.6-9.6-6.2c-0.9-4.1-2.1-8-3.3-12
		c-0.9-2.9-1-4.9,5.7-8.8l4.9-2.8c4.8-2.8,6.4-9,3.6-13.8l-8.3-14.2c-2.8-4.8-9-6.4-13.8-3.6l-5,2.9c-7.2,4.2-10,1.1-10.8,0.2
		c-2.9-3.1-5.9-6.1-9-9c-1.1-1-2.8-3.9,0.9-10.3l3.1-5.4c2.8-4.8,1.1-11-3.6-13.8l-14.2-8.3c-4.8-2.8-11-1.1-13.8,3.6l-3.1,5.4
		c-3.8,6.5-7.4,6.2-9,5.7c-4.5-1.4-8.7-2.4-13.4-3.6c-1.7-0.4-4.6-1.7-4.6-9.4v-5.8c0-5.5-4.5-10.1-10.1-10.1h-16.4
		c-5.5,0-10.1,4.5-10.1,10.1v5.8c0,7.7-2.9,8.9-4.6,9.4c-4.7,1.2-8.9,2.1-13.4,3.6c-1.6,0.5-5.3,0.8-9-5.7l-3.1-5.4
		C1520.3,1206.6,1514.2,1205,1509.4,1207.8L1509.4,1207.8z M1571.6,1309.4c12,0,21.7,9.7,21.7,21.7c0,12-9.7,21.7-21.7,21.7
		c-12,0-21.7-9.7-21.7-21.7C1549.9,1319.1,1559.6,1309.4,1571.6,1309.4L1571.6,1309.4z M1503.6,1331.1c0-2.6,2.1-4.6,4.6-4.6
		s4.6,2.1,4.6,4.6c0,16.2,6.6,30.9,17.2,41.5c10.6,10.6,25.3,17.2,41.5,17.2c2.6,0,4.6,2.1,4.6,4.6c0,2.6-2.1,4.6-4.6,4.6
		c-18.8,0-35.8-7.6-48.1-19.9C1511.2,1366.8,1503.6,1349.8,1503.6,1331.1L1503.6,1331.1z M1638.7,1320.1c0.4,2.5-1.3,4.9-3.8,5.3
		c-2.5,0.4-4.9-1.3-5.3-3.8c-2-12.3-7.8-23.3-16.2-31.8c-8.4-8.5-19.4-14.4-31.7-16.5c-2.5-0.4-4.2-2.8-3.8-5.3
		c0.4-2.5,2.8-4.2,5.3-3.8c14.2,2.5,26.9,9.3,36.7,19.2C1629.6,1293.1,1636.3,1305.8,1638.7,1320.1L1638.7,1320.1z M1571.6,1250.5
		c44.5,0,80.6,36.1,80.6,80.6c0,44.5-36.1,80.6-80.6,80.6c-44.5,0-80.6-36.1-80.6-80.6C1491,1286.6,1527.1,1250.5,1571.6,1250.5z" clip-rule="evenodd"/></svg>